<svg width="180" height="191" viewBox="0 0 180 191" fill="none" xmlns="http://www.w3.org/2000/svg">
<ellipse cx="90" cy="89.4944" rx="90" ry="89.4944" fill="#F4F4F4"/>
<path d="M90.7071 190.293C90.3166 190.683 89.6834 190.683 89.2929 190.293L76.7071 177.707C76.0771 177.077 76.5233 176 77.4142 176H102.586C103.477 176 103.923 177.077 103.293 177.707L90.7071 190.293Z" fill="#F4F4F4"/>
<path d="M123.475 49.8822H55.5041C50.798 49.8822 47 53.6802 47 58.3657V126.357C47 131.043 50.798 134.862 55.5041 134.862H123.496C128.181 134.862 132 131.064 132 126.357V58.3657C131.979 53.6802 128.181 49.8822 123.475 49.8822Z" fill="#F3A3A3"/>
<path d="M123.475 62.6178V109.638C123.475 111.826 121.989 112.61 120.172 111.413L112.184 106.088C111.338 105.531 110.223 105.634 109.501 106.356L101.926 113.932C93.9583 121.899 83.1424 126.378 71.8724 126.378H59.756L52.0156 134.119C53.089 134.593 54.2655 134.882 55.504 134.882H123.496C128.181 134.882 132 131.084 132 126.378V58.3657C132 57.1272 131.711 55.9507 131.236 54.8774L123.475 62.6178Z" fill="#F37B7B"/>
<path d="M109.501 106.336C110.223 105.613 111.338 105.51 112.184 106.067L120.172 111.393C121.989 112.61 123.475 111.805 123.475 109.618V60.4917C123.475 59.3152 122.526 58.3657 121.349 58.3657H57.6299C56.4534 58.3657 55.5039 59.3152 55.5039 60.4917V124.231C55.5039 125.408 56.4534 126.357 57.6299 126.357H71.8929C83.163 126.357 93.9789 121.878 101.946 113.911L109.501 106.336Z" fill="white"/>
<path d="M103.659 89.1003H101.843V81.8553C101.843 75.5185 96.9509 70.0486 89.4995 70.0486C82.0481 70.0486 77.1561 75.5391 77.1561 81.8553V89.1003H75.3397C72.9454 89.1003 72.1816 89.8434 72.1816 92.2377V114.53C72.1816 116.924 72.9454 117.688 75.3397 117.688H103.659C106.054 117.688 106.817 116.924 106.817 114.53V92.2377C106.817 89.8434 106.054 89.1003 103.659 89.1003ZM82.2958 82.1236C82.2958 79.0481 84.298 75.1882 89.4995 75.1882C94.7011 75.1882 96.7239 79.0481 96.7239 82.1236V89.1003H82.2958V82.1236ZM99.304 109.122L95.2584 113.168L89.4995 107.409L83.7819 113.168L79.7363 109.122L85.4539 103.363L79.7363 97.6457L83.7819 93.6L89.4995 99.3176L95.2584 93.6L99.304 97.6457L93.5452 103.363L99.304 109.122Z" fill="#84D8CF"/>
<path d="M120.172 111.413L112.184 106.088C111.338 105.531 110.223 105.634 109.501 106.356L101.926 113.932C97.4467 118.411 92.0593 121.734 86.1973 123.839L86.2179 123.881L122.505 111.805C121.906 112.115 121.081 112.012 120.172 111.413Z" fill="#CFDADA"/>
<path d="M106.487 45.6302H100.109C100.109 39.7681 95.3618 35 89.4791 35C83.5964 35 78.8489 39.7475 78.8489 45.6302H72.4708C70.1177 45.6302 68.2188 47.5291 68.2188 49.8822V60.5124C68.2188 61.6889 69.1682 62.6384 70.3448 62.6384H108.593C109.769 62.6384 110.719 61.6889 110.719 60.5124V49.8822C110.739 47.5291 108.84 45.6302 106.487 45.6302ZM89.4997 49.8822C87.1466 49.8822 85.2477 47.9832 85.2477 45.6302C85.2477 43.2771 87.1466 41.3781 89.4997 41.3781C91.8528 41.3781 93.7518 43.2771 93.7518 45.6302C93.7518 47.9832 91.8322 49.8822 89.4997 49.8822Z" fill="#F37B7B"/>
<path d="M59.7559 126.357H71.8928C83.1629 126.357 93.9788 121.878 101.946 113.911L109.522 106.336C110.244 105.613 111.359 105.51 112.205 106.067L120.193 111.393C122.009 112.611 123.496 111.805 123.496 109.618V62.6178L59.7559 126.357Z" fill="#F4F4F4"/>
<path d="M88.1383 97.9553L89.48 99.297L95.2388 93.5794L99.2845 97.6251L93.5256 103.343L99.2845 109.102L95.2388 113.147L89.48 107.388L83.7624 113.147L79.7167 109.102L85.4343 103.343L84.0927 102.001L72.1621 113.932V114.53C72.1621 116.924 72.9258 117.688 75.3202 117.688H97.5919C99.1194 116.532 100.564 115.273 101.927 113.911L106.798 109.04V92.2584C106.798 89.864 106.034 89.1209 103.64 89.1209H101.823V84.2909L88.1383 97.9553Z" fill="#20CDC1"/>
</svg>
