<svg width="180" height="191" viewBox="0 0 180 191" fill="none" xmlns="http://www.w3.org/2000/svg">
<ellipse cx="90" cy="89.4944" rx="90" ry="89.4944" fill="#F4F4F4"/>
<path d="M115 117.021C128.807 103.214 128.807 80.8278 115 67.0207C101.193 53.2136 78.8071 53.2136 65 67.0207C51.1929 80.8278 51.1929 103.214 65 117.021C78.8071 130.828 101.193 130.828 115 117.021Z" fill="#F3A3A3"/>
<path d="M81.1505 39.5022L71.3906 42.1172L74.6581 54.3124L84.418 51.6973L81.1505 39.5022Z" fill="#84D8CF"/>
<path d="M110.603 46.2114L106.414 53.467L115.164 58.5192L119.354 51.2636L110.603 46.2114Z" fill="#20CDC1"/>
<path d="M101.749 135.918C77.5453 142.396 52.5656 127.986 46.0879 103.782C39.6102 79.5782 54.0201 54.5984 78.2241 48.1207C102.428 41.6431 127.408 56.053 133.886 80.257C140.363 104.461 125.953 129.441 101.749 135.918ZM80.8424 57.876C62.0106 62.9185 50.8007 82.3322 55.8432 101.164C60.8857 119.996 80.2993 131.206 99.1311 126.163C117.963 121.121 129.173 101.707 124.13 82.8752C119.088 64.0434 99.6741 52.8335 80.8424 57.876Z" fill="#F37B7B"/>
<path d="M75.4029 82.4399C77.6096 82.4399 79.4801 82.7341 81.0353 83.3226C82.5906 83.9111 83.8515 84.7307 84.8393 85.7395C85.8271 86.7483 86.5417 87.9463 86.983 89.3123C87.4244 90.6784 87.6556 92.1075 87.6556 93.6418C87.6556 95.0078 87.4034 96.3949 86.92 97.8241C86.4366 99.2532 85.68 100.535 84.6712 101.691C83.6624 102.847 82.4014 103.793 80.8462 104.549C79.2909 105.306 77.4835 105.663 75.3608 105.663C71.1155 105.663 67.8789 104.318 65.6722 101.649C63.4444 98.959 62.3516 95.26 62.3516 90.5523C62.3516 87.1476 62.877 84.1422 63.9278 81.5362C64.9786 78.9091 66.4918 76.7024 68.4464 74.937C70.4009 73.1506 72.7548 71.7845 75.529 70.8598C78.3032 69.935 81.4136 69.4516 84.8814 69.4096C84.9444 70.4604 85.0075 71.4903 85.0915 72.499C85.1546 73.5078 85.2176 74.5377 85.3017 75.6305C83.5783 75.6726 81.939 75.8197 80.4469 76.1139C78.9337 76.4081 77.5676 76.8495 76.3276 77.459C75.0876 78.0684 74.0158 78.8671 73.091 79.8338C72.1663 80.8006 71.4518 81.9775 70.9474 83.3646C71.704 83.0284 72.4605 82.7972 73.2382 82.6501C73.9737 82.5029 74.7093 82.4399 75.4029 82.4399ZM74.4151 88.3456C73.6585 88.3456 72.8599 88.4086 72.0192 88.5557C71.1785 88.6818 70.506 88.871 70.0226 89.1232C70.0226 89.2493 70.0226 89.4594 70.0016 89.7327C69.9806 90.0059 69.9806 90.2371 69.9806 90.4472C69.9806 91.6662 70.0647 92.8221 70.2328 93.915C70.4009 95.0078 70.6952 95.9536 71.0945 96.7732C71.4938 97.5929 72.0402 98.2234 72.7338 98.6857C73.4063 99.1481 74.268 99.3793 75.2768 99.3793C76.1174 99.3793 76.853 99.2112 77.4415 98.8539C78.0299 98.4966 78.5343 98.0552 78.9126 97.5088C79.312 96.9624 79.5852 96.3529 79.7743 95.7014C79.9635 95.0288 80.0475 94.3983 80.0475 93.7889C80.0475 92.0655 79.6062 90.7204 78.7445 89.7957C77.9249 88.8289 76.4537 88.3456 74.4151 88.3456Z" fill="white"/>
<path d="M116.595 87.2317C116.595 93.1794 115.46 97.74 113.211 100.914C110.963 104.087 107.831 105.684 103.859 105.684C99.887 105.684 96.7765 104.087 94.5067 100.914C92.2579 97.74 91.123 93.1794 91.123 87.2317C91.123 84.2684 91.4173 81.6623 92.0057 79.3925C92.5942 77.1227 93.4559 75.1892 94.5698 73.634C95.6837 72.0787 97.0287 70.8808 98.5839 70.0611C100.139 69.2415 101.905 68.8422 103.838 68.8422C107.81 68.8422 110.921 70.4394 113.19 73.6129C115.481 76.7865 116.595 81.326 116.595 87.2317ZM108.861 87.2317C108.861 85.4663 108.777 83.8691 108.609 82.4189C108.441 80.9688 108.168 79.7288 107.789 78.6779C107.411 77.6271 106.907 76.8075 106.255 76.24C105.603 75.6726 104.805 75.3783 103.859 75.3783C102.913 75.3783 102.115 75.6726 101.484 76.24C100.854 76.8285 100.349 77.6271 99.95 78.6779C99.5507 79.7288 99.2775 80.9688 99.1094 82.4189C98.9412 83.8691 98.8572 85.4663 98.8572 87.2317C98.8572 88.9971 98.9412 90.6154 99.1094 92.0655C99.2775 93.5157 99.5507 94.7767 99.95 95.8275C100.349 96.8783 100.854 97.698 101.484 98.2654C102.115 98.8329 102.892 99.1271 103.859 99.1271C104.805 99.1271 105.603 98.8329 106.255 98.2654C106.907 97.698 107.411 96.8783 107.789 95.8275C108.168 94.7767 108.441 93.5157 108.609 92.0655C108.777 90.6154 108.861 88.9971 108.861 87.2317Z" fill="white"/>
<path d="M79.5599 113.097C79.5599 112.478 79.4849 112.027 79.316 111.765C79.1472 111.502 78.8846 111.371 78.4906 111.371C78.3593 111.371 78.2467 111.371 78.1154 111.389C77.984 111.408 77.8527 111.427 77.7402 111.427V116.736H75.7891V110.095C75.9579 110.057 76.1455 110.001 76.3706 109.964C76.5958 109.907 76.8209 109.87 77.0835 109.832C77.3274 109.795 77.5901 109.757 77.8527 109.739C78.1154 109.72 78.378 109.701 78.6219 109.701C79.1097 109.701 79.5224 109.757 79.8226 109.889C80.1227 110.02 80.3854 110.17 80.5918 110.339C80.8732 110.133 81.1921 109.982 81.5486 109.87C81.905 109.757 82.2427 109.701 82.5429 109.701C83.0869 109.701 83.5372 109.776 83.8936 109.926C84.2501 110.076 84.5315 110.301 84.7378 110.583C84.9442 110.864 85.0943 111.202 85.1693 111.577C85.2444 111.952 85.2819 112.384 85.2819 112.853V116.736H83.3308V113.078C83.3308 112.459 83.2558 112.009 83.0869 111.746C82.9181 111.483 82.6554 111.352 82.2615 111.352C82.1489 111.352 82.0176 111.371 81.83 111.427C81.6424 111.483 81.4923 111.54 81.3609 111.615C81.4172 111.821 81.4547 112.027 81.4735 112.252C81.4923 112.478 81.4923 112.721 81.4923 112.965V116.717H79.5599V113.097Z" fill="#F4F4F4"/>
<path d="M89.1837 107.881C89.1837 108.238 89.0712 108.519 88.846 108.726C88.6209 108.932 88.3395 109.026 88.0206 109.026C87.7016 109.026 87.439 108.932 87.1951 108.726C86.97 108.519 86.8574 108.238 86.8574 107.881C86.8574 107.525 86.97 107.243 87.1951 107.037C87.4202 106.831 87.7016 106.737 88.0206 106.737C88.3395 106.737 88.6022 106.831 88.846 107.037C89.0712 107.243 89.1837 107.525 89.1837 107.881ZM89.0149 116.755H87.0638V109.87H89.0149V116.755Z" fill="#F4F4F4"/>
<path d="M90.834 110.095C91.1717 110.001 91.5844 109.907 92.1097 109.832C92.635 109.757 93.1791 109.701 93.7606 109.701C94.3422 109.701 94.83 109.776 95.224 109.926C95.6179 110.076 95.9181 110.301 96.1432 110.583C96.3683 110.864 96.5372 111.202 96.631 111.577C96.7248 111.952 96.7811 112.384 96.7811 112.853V116.736H94.83V113.078C94.83 112.459 94.7549 112.009 94.5861 111.746C94.4172 111.483 94.1171 111.352 93.6481 111.352C93.5167 111.352 93.3667 111.352 93.1978 111.371C93.0477 111.389 92.8976 111.408 92.7851 111.408V116.717H90.834V110.095Z" fill="#F4F4F4"/>
<path d="M100.516 115.348C100.872 115.348 101.135 115.31 101.266 115.235C101.416 115.16 101.491 115.029 101.491 114.823C101.491 114.673 101.398 114.523 101.21 114.41C101.022 114.297 100.722 114.166 100.328 114.016C100.028 113.903 99.7466 113.791 99.5027 113.66C99.2589 113.528 99.0337 113.397 98.8649 113.228C98.696 113.059 98.546 112.853 98.4522 112.628C98.3583 112.384 98.3021 112.102 98.3021 111.783C98.3021 111.146 98.546 110.62 99.015 110.245C99.5027 109.87 100.159 109.682 100.985 109.682C101.398 109.682 101.81 109.72 102.186 109.795C102.561 109.87 102.88 109.945 103.105 110.039L102.767 111.558C102.542 111.483 102.298 111.408 102.035 111.352C101.773 111.296 101.473 111.258 101.135 111.258C100.516 111.258 100.216 111.427 100.216 111.765C100.216 111.84 100.234 111.915 100.253 111.971C100.272 112.027 100.328 112.084 100.403 112.14C100.478 112.196 100.591 112.253 100.722 112.328C100.854 112.403 101.022 112.459 101.247 112.553C101.679 112.703 102.035 112.872 102.298 113.022C102.579 113.172 102.805 113.341 102.955 113.528C103.124 113.716 103.236 113.903 103.292 114.129C103.349 114.354 103.386 114.598 103.386 114.879C103.386 115.554 103.124 116.08 102.617 116.417C102.11 116.774 101.379 116.943 100.46 116.943C99.8404 116.943 99.3339 116.886 98.9399 116.793C98.5272 116.68 98.2458 116.605 98.0957 116.53L98.4146 114.954C98.7523 115.085 99.09 115.179 99.4277 115.254C99.8404 115.31 100.178 115.348 100.516 115.348Z" fill="#F4F4F4"/>
<path d="M89.585 32L60.3242 39.84L62.9392 49.5999L92.2 41.7598L89.585 32Z" fill="#20CDC1"/>
<path d="M90.7071 190.293C90.3166 190.683 89.6834 190.683 89.2929 190.293L76.7071 177.707C76.0771 177.077 76.5233 176 77.4142 176H102.586C103.477 176 103.923 177.077 103.293 177.707L90.7071 190.293Z" fill="#F4F4F4"/>
</svg>
