<svg width="180" height="191" viewBox="0 0 180 191" fill="none" xmlns="http://www.w3.org/2000/svg">
<ellipse cx="90" cy="89.4944" rx="90" ry="89.4944" fill="#F4F4F4"/>
<path d="M124.475 51.5041H56.5041C51.798 51.5041 48 55.3021 48 59.9876V127.979C48 132.665 51.798 136.483 56.5041 136.483H124.496C129.181 136.483 133 132.686 133 127.979V59.9876C132.979 55.3021 129.181 51.5041 124.475 51.5041Z" fill="#F37B7B"/>
<path d="M110.501 107.978C111.223 107.256 112.338 107.153 113.184 107.71L121.172 113.035C122.989 114.253 124.475 113.448 124.475 111.26V62.1136C124.475 60.9371 123.526 59.9876 122.349 59.9876H58.6299C57.4534 59.9876 56.5039 60.9371 56.5039 62.1136V125.853C56.5039 127.03 57.4534 127.979 58.6299 127.979H72.8929C84.163 127.979 94.9789 123.5 102.946 115.533L110.501 107.978Z" fill="#F4F4F4"/>
<path d="M121.172 113.035L113.184 107.71C112.338 107.153 111.223 107.256 110.501 107.978L102.926 115.553C98.4467 120.033 93.0593 123.356 87.1973 125.461L87.2179 125.502L123.505 113.427C122.906 113.737 122.081 113.634 121.172 113.035Z" fill="#CFDADA"/>
<path d="M124.475 51.5041H56.5041C51.798 51.5041 48 55.3021 48 59.9876V68.4918H132.979V59.9876C132.979 55.3021 129.181 51.5041 124.475 51.5041Z" fill="#20CDC1"/>
<path d="M107.715 43C110.068 43 111.967 44.899 111.967 47.2521V55.7562C111.967 58.1093 110.068 60.0083 107.715 60.0083C105.362 60.0083 103.463 58.1093 103.463 55.7562V47.2521C103.463 44.899 105.362 43 107.715 43Z" fill="#F37B7B"/>
<path d="M73.2864 43C75.6188 43 77.5178 44.899 77.5178 47.2521V55.7562C77.5178 58.1093 75.6188 60.0083 73.2657 60.0083C70.9127 60.0083 69.0137 58.1093 69.0137 55.7562V47.2521C69.0343 44.899 70.9333 43 73.2864 43Z" fill="#F37B7B"/>
<path d="M77.7424 83.374H69.2383V87.626H77.7424V83.374Z" fill="#F37B7B"/>
<path d="M94.7502 83.374H86.2461V87.626H94.7502V83.374Z" fill="#F37B7B"/>
<path d="M111.74 83.374H103.236V87.626H111.74V83.374Z" fill="#F37B7B"/>
<path d="M77.7424 96.1095H69.2383V100.362H77.7424V96.1095Z" fill="#F37B7B"/>
<path d="M94.7502 96.1095H86.2461V100.362H94.7502V96.1095Z" fill="#F37B7B"/>
<path d="M111.74 96.1095H103.236V100.362H111.74V96.1095Z" fill="#F37B7B"/>
<path d="M77.7424 108.866H69.2383V113.118H77.7424V108.866Z" fill="#20CDC1"/>
<path d="M94.7502 108.866H86.2461V113.118H94.7502V108.866Z" fill="#F37B7B"/>
<path d="M56.5041 125.853V68.4917H48V127.979C48 130.332 48.9495 132.458 50.4976 133.986L57.1234 127.36C56.7312 126.968 56.5041 126.452 56.5041 125.853Z" fill="#F3A3A3"/>
<path d="M69.2395 113.118V108.866H75.6176L86.2477 98.2356V96.1095H88.3737L115.992 68.4917H56.5039V125.853C56.5039 126.431 56.7516 126.968 57.1231 127.36L71.3655 113.118H69.2395ZM86.2477 83.374H94.7518V87.626H86.2477V83.374ZM69.2395 83.374H77.7436V87.626H69.2395V83.374ZM69.2395 96.1095H77.7436V100.362H69.2395V96.1095Z" fill="white"/>
<path d="M56.5041 62.1143C56.5041 60.9378 57.4536 59.9883 58.6302 59.9883H73.2853C70.9323 59.9883 69.0333 58.0893 69.0333 55.7362V51.5048H56.5041C51.798 51.5048 48 55.3027 48 59.9883V68.4924H56.5041V62.1143Z" fill="#84D8CF"/>
<path d="M107.715 59.9876H122.37C122.948 59.9876 123.485 60.2353 123.877 60.6069L130.503 53.9811C128.955 52.4536 126.849 51.4835 124.496 51.4835H111.967V55.7356C111.946 58.0886 110.047 59.9876 107.715 59.9876Z" fill="#84D8CF"/>
<path d="M73.2852 59.9876H107.714C105.361 59.9876 103.462 58.0886 103.462 55.7355V51.5041H77.5166V55.7562C77.5166 58.0886 75.6176 59.9876 73.2852 59.9876Z" fill="#84D8CF"/>
<path d="M107.714 59.9876H73.2851H58.6299C57.4534 59.9876 56.5039 60.9371 56.5039 62.1136V68.4917H115.992L123.876 60.6068C123.484 60.2147 122.968 59.9876 122.37 59.9876H107.714Z" fill="#84D8CF"/>
<path d="M77.7463 83.374H69.2422V87.626H77.7463V83.374Z" fill="#84D8CF"/>
<path d="M94.7522 83.374H86.248V87.626H94.7522V83.374Z" fill="#F3A3A3"/>
<path d="M77.7463 96.1095H69.2422V100.362H77.7463V96.1095Z" fill="#84D8CF"/>
<path d="M86.248 98.2356L88.3741 96.1095H86.248V98.2356Z" fill="#F3A3A3"/>
<path d="M69.2422 113.118H71.3682L75.6203 108.866H69.2422V113.118Z" fill="#84D8CF"/>
<path d="M90.7071 190.293C90.3166 190.683 89.6834 190.683 89.2929 190.293L76.7071 177.707C76.0771 177.077 76.5233 176 77.4142 176H102.586C103.477 176 103.923 177.077 103.293 177.707L90.7071 190.293Z" fill="#F4F4F4"/>
</svg>
