<svg width="180" height="191" viewBox="0 0 180 191" fill="none" xmlns="http://www.w3.org/2000/svg">
<ellipse cx="90" cy="89.4944" rx="90" ry="89.4944" fill="#F4F4F4"/>
<path d="M47.0157 45.6266L54.3093 129.113C54.4582 130.824 55.9653 132.09 57.6771 131.941L111.616 127.215C113.328 127.066 114.593 125.559 114.445 123.847L107.095 39.84C106.946 38.1283 105.439 36.863 103.727 37.0119L50.309 41.7007C48.3181 41.8681 46.8297 43.6357 47.0157 45.6266Z" fill="#20CDC1"/>
<path d="M85.7715 48.2873L84.5621 62.2047C84.4133 63.9165 82.9062 65.1817 81.1944 65.0328L67.2769 63.8048L61.1369 133.894C60.988 135.606 62.2533 137.113 63.965 137.262L117.904 141.988C119.616 142.137 121.123 140.872 121.272 139.16L128.622 55.153C128.77 53.4412 127.505 51.9341 125.793 51.7852L85.7715 48.2873Z" fill="#F37B7B"/>
<path d="M81.1948 65.0329L67.2773 63.8049L85.7719 48.2873L84.5625 62.2047C84.4137 63.9165 82.9066 65.1817 81.1948 65.0329Z" fill="#CFDADA"/>
<path d="M74.8129 43.2078V57.181C74.8129 58.8928 73.4175 60.2883 71.7057 60.2883H57.7324V130.657C57.7324 132.369 59.1279 133.764 60.8397 133.764H114.984C116.695 133.764 118.091 132.369 118.091 130.657V46.315C118.091 44.6032 116.695 43.2078 114.984 43.2078H74.8129Z" fill="white"/>
<path d="M78.8677 74.5034H70.5879V76.5687H78.8677V74.5034Z" fill="#20CDC1"/>
<path d="M105.251 74.5034H82.998V76.5687H105.251V74.5034Z" fill="#20CDC1"/>
<path d="M78.8677 87.4347H70.5879V89.5H78.8677V87.4347Z" fill="#20CDC1"/>
<path d="M105.251 87.4347H82.998V89.5H105.251V87.4347Z" fill="#20CDC1"/>
<path d="M78.8677 100.385H70.5879V102.45H78.8677V100.385Z" fill="#20CDC1"/>
<path d="M105.251 100.385H82.998V102.45H105.251V100.385Z" fill="#20CDC1"/>
<path d="M105.252 80.9784H96.9727V83.0436H105.252V80.9784Z" fill="#20CDC1"/>
<path d="M92.8409 80.9784H70.5879V83.0436H92.8409V80.9784Z" fill="#20CDC1"/>
<path d="M105.252 93.9097H96.9727V95.975H105.252V93.9097Z" fill="#20CDC1"/>
<path d="M92.8409 93.9097H70.5879V95.975H92.8409V93.9097Z" fill="#20CDC1"/>
<path d="M71.7057 60.2883H57.7324L74.8129 43.2078V57.181C74.8129 58.8928 73.4175 60.2883 71.7057 60.2883Z" fill="#CFDADA"/>
<path d="M86.1996 120.368C86.0694 120.368 85.9391 120.349 85.8089 120.312C85.4926 120.2 85.2321 119.977 85.1018 119.661L83.4831 116.051L81.8644 119.661C81.6783 120.089 81.2318 120.368 80.7666 120.368C80.2828 120.368 79.8549 120.089 79.6688 119.661L77.5477 114.897L75.4266 119.661C75.2406 120.089 74.794 120.368 74.3289 120.368C73.8451 120.368 73.4171 120.089 73.2311 119.661L71.6123 116.032C71.3333 115.418 71.6123 114.711 72.2264 114.432C72.8404 114.153 73.5474 114.432 73.8265 115.046L74.3289 116.2L76.45 111.437C76.636 111.009 77.0826 110.73 77.5477 110.73C78.0315 110.73 78.4594 111.009 78.6455 111.437L80.7666 116.2L82.3853 112.59C82.5714 112.162 83.018 111.883 83.4831 111.883C83.9669 111.883 84.3948 112.162 84.5809 112.59L86.7764 117.484L93.1397 114.06C93.7351 113.744 94.4608 113.967 94.7771 114.544C95.0934 115.139 94.8701 115.865 94.2933 116.181L86.7764 120.219C86.5903 120.312 86.4043 120.368 86.1996 120.368Z" fill="#20CDC1"/>
<path d="M103.525 111.958L110.056 115.735L132.086 77.5734C132.421 76.9966 132.216 76.2524 131.639 75.9175L127.192 73.3498C126.616 73.0149 125.871 73.2196 125.537 73.7964L103.525 111.958Z" fill="#20CDC1"/>
<path d="M103.002 120.368L110.054 115.716L103.523 111.958L103.002 120.368Z" fill="#84D8CF"/>
<path d="M90.7071 190.293C90.3166 190.683 89.6834 190.683 89.2929 190.293L76.7071 177.707C76.0771 177.077 76.5233 176 77.4142 176H102.586C103.477 176 103.923 177.077 103.293 177.707L90.7071 190.293Z" fill="#F4F4F4"/>
</svg>
