<svg width="180" height="191" viewBox="0 0 180 191" fill="none" xmlns="http://www.w3.org/2000/svg">
<ellipse cx="90" cy="89.4944" rx="90" ry="89.4944" fill="#F4F4F4"/>
<path d="M90.7071 190.293C90.3166 190.683 89.6834 190.683 89.2929 190.293L76.7071 177.707C76.0771 177.077 76.5233 176 77.4142 176H102.586C103.477 176 103.923 177.077 103.293 177.707L90.7071 190.293Z" fill="#F4F4F4"/>
<path d="M68.5571 85.9387L91.1851 54.1693H82.0718L61.3906 83.2019C65.3689 83.8509 67.4567 84.8102 68.5571 85.9387Z" fill="#84D8CF"/>
<path d="M57.5264 77.1358C64.0721 77.1358 68.1914 72.678 68.1914 65.5397C68.1914 58.4579 64.0721 54 57.5264 54C51.0088 54 46.8613 58.4579 46.8613 65.5397C46.8613 72.678 50.9806 77.1358 57.5264 77.1358ZM57.5264 59.3043C60.3478 59.3043 62.0407 61.6461 62.0407 65.5679C62.0407 69.4897 60.3478 71.8879 57.5264 71.8879C54.7049 71.8879 53.0121 69.4897 53.0121 65.5679C53.0121 61.6179 54.7049 59.3043 57.5264 59.3043Z" fill="#84D8CF"/>
<path d="M78.1191 80.973C78.1191 86.1927 80.3481 89.9734 84.1006 91.6381C86.781 91.243 90.2796 90.9891 94.8221 90.9327C97.7564 89.0141 99.4492 85.5437 99.4492 81.0012C99.4492 73.9194 95.3017 69.4615 88.7842 69.4615C82.2384 69.4051 78.1191 73.8912 78.1191 80.973ZM93.2985 80.973C93.2985 84.8948 91.6056 87.293 88.7842 87.293C85.9627 87.293 84.2699 84.8948 84.2699 80.973C84.2699 77.0512 85.9627 74.7094 88.7842 74.7094C91.6056 74.7094 93.2985 77.0512 93.2985 80.973Z" fill="#84D8CF"/>
<path d="M67.1177 94.1773C67.1177 94.1209 67.1459 94.0645 67.1459 94.0081V88.732C67.1459 85.3744 55.2112 84.8666 48.0729 84.8666C40.9629 84.8666 29 85.3744 29 88.732V94.0081C29 95.5316 31.4546 96.4627 34.7557 97.027C34.7557 97.0834 34.7275 97.1399 34.7275 97.1963V102.444C34.7275 103.037 35.1225 103.545 35.7432 103.968C33.9939 104.532 32.8654 105.294 32.8654 106.31V111.586C32.8654 112.404 33.5989 113.081 34.8122 113.589C34.3889 113.956 34.1068 114.379 34.1068 114.859V120.135C34.1068 123.492 46.0415 124 53.1515 124C60.2616 124 72.2245 123.492 72.2245 120.135V114.859C72.2245 114.04 71.4909 113.363 70.2777 112.855C70.7291 112.489 70.9831 112.065 70.9831 111.586V106.31C70.9831 105.717 70.5881 105.237 69.9673 104.786C71.7166 104.222 72.8452 103.46 72.8452 102.444V97.1963C72.8734 95.6727 70.447 94.7416 67.1177 94.1773Z" fill="#20CDC1"/>
<path d="M115.449 103.686C115.844 103.319 116.098 102.924 116.098 102.472V97.2245C116.098 93.867 104.163 93.3591 97.0248 93.3591C89.9147 93.3591 77.9518 93.867 77.9518 97.2245V102.472C77.9518 103.686 79.5318 104.532 81.8736 105.096C81.4786 105.463 81.2247 105.858 81.2247 106.31V111.586C81.2247 111.699 81.2811 111.783 81.2811 111.868C78.0929 112.432 75.7793 113.363 75.7793 114.83V120.106C75.7793 123.464 87.714 123.972 94.8522 123.972C101.962 123.972 113.925 123.464 113.925 120.106V114.83C113.925 114.717 113.869 114.633 113.869 114.548C117.057 113.984 119.371 113.053 119.371 111.586V106.31C119.371 105.096 117.791 104.25 115.449 103.686Z" fill="#20CDC1"/>
<path d="M149.419 102.98H143.776C143.776 101.344 143.776 60.2918 143.776 54H129.894C129.894 60.4893 129.894 101.146 129.894 102.98H124.223C123.123 102.98 122.7 103.742 123.32 104.673L135.707 123.266C136.327 124.198 137.343 124.198 137.964 123.266L150.322 104.673C150.942 103.742 150.519 102.98 149.419 102.98Z" fill="#F37B7B"/>
<path d="M32.4707 88.7319C34.6996 88.083 39.9475 87.3212 48.1015 87.3212C56.2555 87.3212 61.5316 88.083 63.7605 88.7319C61.5316 89.3809 56.2837 90.1427 48.1015 90.1427C39.9193 90.1427 34.6714 89.3809 32.4707 88.7319Z" fill="white"/>
<path d="M53.207 116.269C45.0248 116.269 39.7769 115.507 37.5762 114.859C37.8865 114.774 38.2251 114.689 38.6483 114.605C42.7112 115.31 48.0719 115.451 51.9938 115.451C56.3388 115.451 62.4331 115.254 66.5806 114.351C67.5399 114.52 68.3017 114.689 68.866 114.859C66.637 115.479 61.3892 116.269 53.207 116.269Z" fill="white"/>
<path d="M36.3359 106.31C37.267 106.027 38.7624 105.745 40.7374 105.491C44.7438 106.14 49.9917 106.31 53.8289 106.31C57.1018 106.31 61.3621 106.197 65.0582 105.745C66.1304 105.943 67.005 106.112 67.6257 106.31C65.3968 106.958 60.1489 107.72 51.9667 107.72C43.7845 107.72 38.5649 106.958 36.3359 106.31Z" fill="white"/>
<path d="M53.8279 98.607C47.3386 98.607 42.7396 98.1274 39.9746 97.6195C42.7961 97.817 45.7303 97.8734 48.1004 97.8734C53.0943 97.8734 60.4301 97.6195 64.3801 96.3217C66.6937 96.5756 68.4148 96.9142 69.4587 97.2245C67.258 97.8452 62.0101 98.607 53.8279 98.607Z" fill="white"/>
<path d="M81.3945 97.1963C83.6235 96.5474 88.8714 95.7856 97.0535 95.7856C105.236 95.7856 110.484 96.5474 112.684 97.1963C110.455 97.8452 105.208 98.607 97.0535 98.607C88.8996 98.607 83.6235 97.8452 81.3945 97.1963Z" fill="white"/>
<path d="M94.8524 116.269C86.6702 116.269 81.4223 115.507 79.1934 114.859C80.2091 114.548 81.9302 114.238 84.2437 113.984C88.2502 115.225 95.4167 115.451 100.298 115.451C102.978 115.451 106.336 115.366 109.496 115.112C106.9 115.677 101.991 116.269 94.8524 116.269Z" fill="white"/>
<path d="M100.298 107.72C92.1155 107.72 86.8676 106.959 84.6387 106.31C85.1465 106.168 85.8237 105.999 86.6419 105.858C90.1123 106.225 94.0059 106.31 97.0248 106.31C101.059 106.31 106.618 106.14 110.709 105.407C113.135 105.661 114.885 105.999 115.957 106.31C113.728 106.959 108.48 107.72 100.298 107.72Z" fill="white"/>
</svg>
