<svg width="180" height="191" viewBox="0 0 180 191" fill="none" xmlns="http://www.w3.org/2000/svg">
<ellipse cx="90" cy="89.4944" rx="90" ry="89.4944" fill="#F4F4F4"/>
<path d="M90.7071 190.293C90.3166 190.683 89.6834 190.683 89.2929 190.293L76.7071 177.707C76.0771 177.077 76.5233 176 77.4142 176H102.586C103.477 176 103.923 177.077 103.293 177.707L90.7071 190.293Z" fill="#F4F4F4"/>
<path d="M136.205 84.1566C135.9 81.3916 139.157 77.8515 138.342 75.095C137.55 72.3321 132.884 71.0946 131.677 68.5971C130.426 66.0343 132.262 61.5927 130.607 59.3431C128.916 57.0521 124.128 57.4631 122.094 55.5203C120.054 53.5536 120.256 48.755 117.916 47.2019C115.57 45.6249 111.218 47.6631 108.627 46.5109C106.042 45.3826 104.607 40.7918 101.855 40.093C99.1331 39.4116 95.7351 42.8099 92.8896 42.6234C90.0984 42.448 87.1737 38.6153 84.3368 38.9395C81.5717 39.2444 79.5535 43.5808 76.7731 44.4028C74.0103 45.1944 69.9588 42.6125 67.4677 43.8442C64.9048 45.0952 64.4749 49.9037 62.2253 51.5579C59.9343 53.249 55.2415 52.1982 53.2987 54.2319C51.332 56.2721 52.5759 60.9142 51.0292 63.2777C49.4523 65.6238 44.6977 66.2566 43.5455 68.8479C42.4172 71.4327 45.1634 75.3645 44.4646 78.1164C43.7833 80.838 39.5301 83.0548 39.3436 85.9002C39.1682 88.6914 43.0842 91.4378 43.4148 94.2985C43.659 97.0286 40.4255 100.562 41.2171 103.325C42.0087 106.088 46.6745 107.325 47.8823 109.823C49.1332 112.386 47.2971 116.827 48.9514 119.077C50.6424 121.368 55.4307 120.957 57.4644 122.9C59.5046 124.867 59.3029 129.665 61.6425 131.218C63.9885 132.795 68.3409 130.757 70.9321 131.909C73.517 133.037 74.9523 137.628 77.7042 138.327C80.4257 139.008 83.8238 135.61 86.6692 135.797C89.4604 135.972 92.3852 139.805 95.222 139.481C97.9871 139.176 100.005 134.839 102.786 134.017C105.549 133.226 109.6 135.808 112.091 134.576C114.654 133.325 115.084 128.516 117.334 126.862C119.625 125.171 124.317 126.222 126.26 124.188C128.227 122.148 126.983 117.506 128.53 115.142C130.107 112.796 134.861 112.164 136.013 109.572C137.142 106.987 134.395 103.056 135.094 100.304C135.776 97.5821 140.029 95.3653 140.215 92.5199C140.451 89.7638 136.505 86.9999 136.205 84.1566Z" fill="#F37B7B"/>
<path d="M128.28 85.0235C128.531 87.3929 131.808 89.6693 131.661 91.9912C131.496 94.3436 127.963 96.1877 127.412 98.4383C126.844 100.719 129.128 103.98 128.191 106.129C127.253 108.278 123.29 108.801 121.989 110.74C120.687 112.679 121.72 116.531 120.102 118.247C118.478 119.939 114.606 119.079 112.694 120.463C110.83 121.834 110.482 125.8 108.355 126.857C106.293 127.872 102.922 125.723 100.637 126.386C98.3531 127.05 96.6531 130.66 94.362 130.915C91.9926 131.165 89.584 128.014 87.2556 127.843C84.9033 127.679 82.0662 130.49 79.8156 129.939C77.5346 129.371 76.3348 125.563 74.1858 124.626C72.0368 123.689 68.4357 125.372 66.4665 124.053C64.5277 122.751 64.6953 118.783 62.9971 117.135C61.3052 115.511 57.3514 115.878 55.9433 113.972C54.5719 112.109 56.0962 108.417 55.0628 106.283C54.0486 104.221 50.2032 103.174 49.5399 100.89C48.8765 98.6058 51.573 95.652 51.3181 93.3608C51.0679 90.9914 47.7907 88.715 47.9379 86.393C48.1027 84.0407 51.635 82.1966 52.1861 79.9459C52.7546 77.6649 50.4704 74.4044 51.4077 72.2554C52.345 70.1064 56.3082 69.583 57.6096 67.6442C58.911 65.7055 57.8788 61.853 59.4964 60.1372C61.1204 58.4454 64.9927 59.3056 66.9044 57.9214C68.7682 56.55 69.1161 52.5842 71.2435 51.5269C73.3056 50.5127 76.6768 52.6613 78.9611 51.9979C81.2454 51.3346 82.9454 47.7246 85.2365 47.4697C87.6059 47.2195 90.0145 50.3698 92.3429 50.541C94.6952 50.7057 97.5258 47.8699 99.7829 48.4448C102.064 49.0134 103.264 52.821 105.413 53.7583C107.562 54.6956 111.163 53.0126 113.132 54.3315C115.071 55.6329 114.903 59.6017 116.601 61.2497C118.293 62.8737 122.247 62.5068 123.655 64.412C125.027 66.2758 123.502 69.967 124.536 72.1008C125.55 74.1629 129.395 75.2099 130.059 77.4942C130.728 79.8025 128.026 82.7323 128.28 85.0235Z" fill="#84D8CF"/>
<path d="M125.022 85.3619C125.251 87.5333 128.249 89.6153 128.113 91.7343C127.965 93.9064 124.716 95.5799 124.213 97.6465C123.693 99.7428 125.774 102.723 124.916 104.684C124.035 106.651 120.412 107.12 119.21 108.922C118.001 110.701 118.972 114.23 117.477 115.785C116.005 117.333 112.421 116.537 110.68 117.832C108.956 119.096 108.644 122.718 106.691 123.692C104.779 124.631 101.713 122.668 99.613 123.281C97.5133 123.894 95.958 127.196 93.8581 127.432C91.6815 127.664 89.4718 124.769 87.3482 124.635C85.1714 124.491 82.5907 127.064 80.5201 126.565C78.4198 126.049 77.3381 122.576 75.3675 121.699C73.3968 120.822 70.0926 122.384 68.2876 121.187C66.5062 119.983 66.6654 116.353 65.1091 114.863C63.559 113.397 59.9224 113.719 58.621 111.96C57.3557 110.242 58.7685 106.878 57.8175 104.925C56.8791 103.019 53.3576 102.08 52.7462 99.9862C52.1348 97.892 54.6074 95.1973 54.3965 93.0961C54.1669 90.9247 51.169 88.8427 51.3055 86.7237C51.453 84.5516 54.7023 82.8781 55.2286 80.8052C55.7485 78.7089 53.6672 75.7291 54.5252 73.768C55.4068 71.8006 59.0292 71.3318 60.2316 69.5293C61.4403 67.7503 60.4697 64.2219 61.9649 62.6672C63.4366 61.1187 67.0206 61.9146 68.7616 60.6202C70.4854 59.3554 70.798 55.7341 72.7504 54.7593C74.6622 53.8206 77.7289 55.7838 79.8286 55.171C81.9283 54.5582 83.4836 51.2562 85.5835 51.0196C87.7602 50.7877 89.9698 53.683 92.0934 53.8165C94.2702 53.9608 96.8509 51.3876 98.9215 51.8865C101.022 52.4026 102.104 55.8761 104.074 56.7531C106.045 57.6301 109.349 56.0673 111.154 57.2646C112.935 58.4683 112.776 62.0987 114.333 63.5885C115.883 65.0548 119.519 64.7327 120.821 66.4915C122.086 68.2098 120.673 71.5739 121.624 73.527C122.562 75.4332 126.084 76.3713 126.695 78.4655C127.26 80.5723 124.781 83.2436 125.022 85.3619Z" fill="white"/>
<path d="M82.1168 61.0005L84.8779 64.0307L88.9544 63.4514L86.9352 67.0187L88.7221 70.7203L84.7062 69.8985L81.7495 72.7425L81.2723 68.6643L77.6524 66.7362L81.4036 65.0386L82.1168 61.0005Z" fill="#20CDC1"/>
<path d="M92.6079 59.0873L94.8481 61.5134L98.1396 61.0674L96.4994 63.9433L97.9375 66.9177L94.7053 66.2449L92.3224 68.5504L91.9547 65.2636L89.0262 63.7145L92.0437 62.3417L92.6079 59.0873Z" fill="#84D8CF"/>
<path d="M72.2388 65.0066L74.4789 67.4327L77.7465 66.9931L76.1302 69.8626L77.5684 72.837L74.3187 72.1946L71.9294 74.4761L71.5616 71.1894L68.6571 69.6338L71.6507 68.2674L72.2388 65.0066Z" fill="#84D8CF"/>
<path d="M94.3375 106.608L97.0986 109.639L101.175 109.059L99.1559 112.626L100.943 116.328L96.9269 115.506L93.9702 118.35L93.493 114.272L89.8731 112.344L93.6243 110.646L94.3375 106.608Z" fill="#20CDC1"/>
<path d="M104.821 104.671L107.067 107.121L110.352 106.651L108.712 109.527L110.157 112.525L106.925 111.853L104.542 114.158L104.168 110.847L101.239 109.298L104.257 107.926L104.821 104.671Z" fill="#84D8CF"/>
<path d="M84.4536 110.59L86.7002 113.04L89.9613 112.577L88.3515 115.47L89.7896 118.445L86.5335 117.778L84.1506 120.084L83.7829 116.797L80.8719 115.218L83.8655 113.851L84.4536 110.59Z" fill="#84D8CF"/>
<path d="M127.331 66.0683L45.6875 87.9447L52.2274 112.352L133.871 90.4753L127.331 66.0683Z" fill="#F37B7B"/>
<path d="M65.525 104.07L61.4023 88.6839L71.6916 85.9269L72.4674 88.8222L65.6239 90.6559L66.483 93.8624L72.5608 92.2338L73.3366 95.1292L67.2588 96.7577L68.9579 103.099L65.5122 104.022L65.525 104.07Z" fill="white"/>
<path d="M78.6099 83.8937C80.907 83.2782 82.7867 83.2106 84.249 83.6907C85.6873 84.1773 86.6557 85.3027 87.1174 87.0256C87.4059 88.1024 87.4038 89.0518 87.0808 89.8565C86.7579 90.6611 86.1811 91.3799 85.3744 92.0064C85.788 92.3059 86.2384 92.6468 86.7081 93.0596C87.1777 93.4723 87.6474 93.885 88.1298 94.3456C88.6123 94.8062 89.0708 95.2732 89.5358 95.7642C90.0007 96.2551 90.4418 96.7524 90.8588 97.2562L86.9824 98.2949C86.5607 97.8693 86.1389 97.4438 85.7107 96.9943C85.2825 96.5448 84.8607 96.1192 84.4214 95.724C83.9821 95.3288 83.5667 94.9272 83.1402 94.5798C82.7377 94.226 82.3176 93.9026 81.9343 93.6206L80.2354 94.0758L81.7421 99.699L78.2725 100.629L74.2203 85.5059C74.9476 85.1572 75.6876 84.8563 76.482 84.5665C77.2524 84.2831 77.9638 84.0668 78.6099 83.8937ZM79.5899 86.7856C79.3267 86.8562 79.1114 86.9139 78.9264 86.9891C78.7413 87.0643 78.5499 87.1156 78.3649 87.1908L79.4805 91.3544L80.4616 91.0915C81.7537 90.7453 82.642 90.3277 83.133 89.8628C83.5936 89.3803 83.7332 88.753 83.5217 87.9634C83.3165 87.1977 82.8883 86.7482 82.2307 86.591C81.597 86.4274 80.7146 86.4843 79.5899 86.7856Z" fill="white"/>
<path d="M93.0699 96.6894L88.9473 81.3034L99.3322 78.5208L100.108 81.4161L93.1927 83.2691L94.0006 86.2841L100.15 84.6363L100.913 87.4838L94.7635 89.1315L95.7573 92.8405L103.199 90.8464L103.975 93.7418L93.0635 96.6655L93.0699 96.6894Z" fill="white"/>
<path d="M106.513 93.0871L102.391 77.7011L112.776 74.9185L113.551 77.8138L106.636 79.6668L107.444 82.6817L113.594 81.034L114.357 83.8814L108.207 85.5292L109.201 89.2381L116.642 87.2441L117.418 90.1395L106.507 93.0632L106.513 93.0871Z" fill="white"/>
</svg>
