<svg width="180" height="127" viewBox="0 0 180 127" fill="none" xmlns="http://www.w3.org/2000/svg">
<path d="M0 84.0673C0 100.779 7.38054 115.728 18.992 125.976H54.0377C47.8324 101.884 26.0199 84.0673 0 84.0673Z" fill="#F3A3A3"/>
<path d="M25.6199 108.794H12.4102V110.534H25.6199V108.794Z" fill="#F37B7B"/>
<path d="M13.9609 56.1199C13.9609 85.2894 28.863 110.957 51.4512 125.976H96.6041C89.9522 86.3237 55.4941 56.1199 13.9609 56.1199Z" fill="#F37B7B"/>
<path d="M85.0405 125.977L28.5583 69.4708L27.3125 70.7166L82.5725 125.977H85.0405Z" fill="white"/>
<path d="M40.1693 81.4346H26.7715V83.1739H40.1693V81.4346Z" fill="white"/>
<path d="M52.3908 93.6572H32.5762V95.3966H52.3908V93.6572Z" fill="white"/>
<path d="M41.0148 71.9857H39.2754V82.3279H41.0148V71.9857Z" fill="white"/>
<path d="M56.9515 0.248779H133.507C138.843 0.248779 143.167 4.57368 143.167 9.90929V116.292C143.167 121.628 138.843 125.953 133.507 125.953H56.9515C51.6159 125.953 47.291 121.628 47.291 116.292V9.90929C47.291 4.57368 51.6159 0.248779 56.9515 0.248779Z" fill="#84D8CF"/>
<path d="M107.512 5.09082H64.0041C61.3246 5.09082 59.1621 7.25327 59.1621 9.93283V116.316C59.1621 118.996 61.3246 121.158 64.0041 121.158H131.698C134.378 121.158 136.54 118.996 136.54 116.316V34.0959C136.54 31.4163 134.378 29.2538 131.698 29.2538H117.196C114.516 29.2538 112.354 27.0914 112.354 24.4118V9.90932C112.354 7.25327 110.191 5.09082 107.512 5.09082Z" fill="white"/>
<path d="M135.13 30.6876C134.26 29.8179 133.038 29.2773 131.722 29.2773H117.219C114.54 29.2773 112.377 27.1149 112.377 24.4353V9.90931C112.377 8.56953 111.836 7.37078 110.967 6.5011L135.13 30.6876Z" fill="#CFDADA"/>
<path d="M67.2246 121.134H131.699C134.378 121.134 136.541 118.972 136.541 116.292V51.8185L67.2246 121.134Z" fill="#F4F4F4"/>
<path d="M73.6641 43.3334V46.8121C73.6641 47.8228 74.4867 48.622 75.4739 48.622H100.859C101.87 48.622 102.669 47.7993 102.669 46.8121V43.3334C102.669 41.0769 101.259 39.032 99.1434 38.2328C97.0279 37.4337 94.8655 36.9165 92.656 36.5875C90.5171 39.8076 85.7926 39.8076 83.6771 36.5875C81.4677 36.9165 79.3052 37.4337 77.1898 38.2328C75.0744 39.032 73.6641 41.0534 73.6641 43.3334ZM93.7843 27.3265C93.8548 26.9505 93.6667 26.5979 93.3612 26.4099C93.4082 25.7752 93.4552 25.2346 93.4552 24.882C93.4552 21.9674 91.1047 19.6169 88.1901 19.6169C85.2755 19.6169 82.925 21.9674 82.925 24.882C82.925 25.2346 82.9485 25.7752 83.019 26.4099C82.7134 26.5979 82.5254 26.9505 82.5959 27.3265L82.972 29.4185C83.019 29.724 83.2541 29.9591 83.5126 30.0766C83.5361 30.1941 83.5596 30.3117 83.6066 30.4057C84.1002 31.957 85.6751 34.1195 88.2136 34.1195C90.7521 34.1195 92.3505 31.9805 92.8205 30.4057C92.8441 30.3117 92.8676 30.1941 92.9146 30.0766C93.1966 29.9591 93.4082 29.724 93.4552 29.4185L93.7843 27.3265Z" fill="#F37B7B"/>
<path d="M78.1299 79.6717L71.6426 73.1844L74.1106 70.7164L78.1299 74.7357L87.3674 65.4983L89.8354 67.9663L78.1299 79.6717Z" fill="#84D8CF"/>
<path d="M104.292 75.3235H97.3105V78.8257H104.292V75.3235Z" fill="#84D8CF"/>
<path d="M125.258 68.3424H97.3105V71.8446H125.258V68.3424Z" fill="#84D8CF"/>
<path d="M125.257 75.3235H107.793V78.8257H125.257V75.3235Z" fill="#84D8CF"/>
<path d="M78.1299 100.638L71.6426 94.1273L74.1106 91.6593L78.1299 95.7021L87.3674 86.4647L89.8354 88.9327L78.1299 100.638Z" fill="#84D8CF"/>
<path d="M104.292 96.2898H97.3105V99.792H104.292V96.2898Z" fill="#84D8CF"/>
<path d="M125.258 89.3088H97.3105V92.8111H125.258V89.3088Z" fill="#84D8CF"/>
<path d="M125.257 96.2898H107.793V99.792H125.257V96.2898Z" fill="#84D8CF"/>
<path d="M61.5833 43.7798H56.7413C55.4015 43.7798 54.3203 44.861 54.3203 46.2008V80.0478C54.3203 81.3876 55.4015 82.4688 56.7413 82.4688H61.5833C62.9231 82.4688 64.0043 81.3876 64.0043 80.0478V46.2008C64.0043 44.861 62.9231 43.7798 61.5833 43.7798Z" fill="#CFDADA"/>
<path d="M176.379 50.9958C169.986 55.2502 161.83 55.7673 154.966 52.3356L149.56 49.6325C148.244 48.9744 146.716 48.9744 145.4 49.6325L139.994 52.3356C133.13 55.7673 124.951 55.2502 118.581 50.9958C117.029 49.9616 114.961 51.0663 114.961 52.9232V68.3189C114.961 90.8836 125.961 112.014 144.46 124.942C146.199 126.423 148.761 126.423 150.5 124.942C168.975 112.014 179.999 90.8836 179.999 68.3189V52.9232C179.975 51.0663 177.907 49.9616 176.379 50.9958Z" fill="#F3A3A3"/>
<path d="M179.977 68.3425V53.2523L126.598 106.632V106.655C131.299 113.73 137.316 119.959 144.461 124.966C146.201 126.447 148.763 126.447 150.502 124.966C168.977 112.038 179.977 90.9072 179.977 68.3425Z" fill="#F37B7B"/>
<path d="M147.469 118.455C131.51 106.796 122.014 88.157 122.014 68.3424V60.3742C124.717 61.2204 127.561 61.6435 130.428 61.6435C134.824 61.6435 139.219 60.6093 143.145 58.6349L147.469 56.4724L151.794 58.6349C155.72 60.6093 160.115 61.6435 164.511 61.6435C167.402 61.6435 170.222 61.2204 172.925 60.3742V68.3424C172.925 88.157 163.429 106.796 147.469 118.455Z" fill="white"/>
<path d="M147.469 118.455C163.429 106.796 172.925 88.157 172.925 68.3424V60.3743C172.878 60.3978 172.854 60.3978 172.807 60.3978L131.65 101.555C135.764 108.066 141.099 113.801 147.469 118.455Z" fill="#F4F4F4"/>
<path d="M43.1319 125.976L9.91952 92.764L8.69727 93.9863L40.6639 125.976H43.1319Z" fill="#F37B7B"/>
<path d="M140.114 97.9116L128.832 86.6292C127.892 85.689 127.892 84.1377 128.832 83.1975L132.264 79.7658C133.204 78.8256 134.755 78.8256 135.696 79.7658L141.854 85.9241L159.294 68.4835C160.235 67.5433 161.786 67.5433 162.726 68.4835L166.158 71.9152C167.098 72.8554 167.098 74.4067 166.158 75.3469L143.57 97.9351C142.582 98.8518 141.055 98.8518 140.114 97.9116Z" fill="#20CDC1"/>
</svg>
