<svg width="81" height="20" viewBox="0 0 81 20" fill="none" xmlns="http://www.w3.org/2000/svg">
<path d="M38.6205 1.7357C35.8722 1.44641 34.1365 4.62862 35.0044 7.66618C32.4007 8.24476 30.3757 10.4145 30.9543 12.5841C31.2436 13.452 32.4007 15.4771 35.2936 15.4771C35.8722 21.4075 41.9474 21.4075 42.5259 16.0556C44.4063 16.9235 46.7207 16.6342 48.3118 15.4771C50.7708 13.7413 50.9154 10.4145 47.1546 9.40193C49.1796 7.37689 49.1797 4.91791 47.7332 3.76074C45.7081 2.16964 43.3938 3.3268 42.2366 4.05003C41.5134 3.18216 40.3563 1.88034 38.6205 1.7357Z" fill="#F37B7B"/>
<path d="M41.658 12.4395C40.9348 13.0181 39.4883 13.0181 39.0544 12.0056C38.6205 10.9931 39.0544 9.54661 40.0669 9.25732C41.658 8.67874 42.5259 10.4145 42.092 11.7163C42.2366 12.0056 41.9473 12.1502 41.658 12.4395Z" fill="white"/>
<path d="M29.2185 11.427C28.4952 11.2824 27.4827 11.2824 26.7595 11.2824C25.313 11.1377 23.7219 10.9931 22.2755 10.9931C22.8541 6.79836 21.8415 5.06261 20.6844 3.4715C19.5272 2.02504 16.9236 0.72323 15.0432 0C15.0432 3.76079 16.7789 7.2323 20.1058 9.69128C20.829 10.1252 21.263 10.5592 21.9862 10.8484C21.8415 10.8484 21.6969 10.8484 21.6969 10.8484C18.5147 10.5592 15.1878 9.69128 12.2949 9.25734C11.861 8.67876 11.427 8.24482 10.8484 7.81088C7.81088 5.06261 4.05009 4.05009 0 4.77332C0.867876 6.50907 2.60363 8.53411 4.33938 9.40199C6.07513 10.2699 7.95553 10.8484 12.1503 9.54663C13.886 9.98057 15.6218 10.5592 17.3575 10.8484C14.3199 11.2824 11.5717 12.8735 9.25734 15.4771C10.9931 16.345 13.5967 17.2129 15.4771 16.6343C17.3575 16.2003 19.2379 15.4771 21.9862 11.427C23.4326 11.5717 24.8791 11.7163 26.3256 11.7163C27.1934 11.7163 28.0613 11.861 28.9292 11.861C29.2185 11.861 29.5078 11.7163 29.5078 11.427C29.6524 11.7163 29.5078 11.5717 29.2185 11.427Z" fill="#CFDADA"/>
<path d="M70.0087 7.81088C69.4301 8.24482 68.9962 8.67876 68.5622 9.25734C65.5247 9.83592 62.1978 10.7038 59.1602 10.8484C59.0156 10.8484 58.8709 10.8484 58.8709 10.8484C59.5942 10.5592 60.1728 10.1252 60.7513 9.69128C64.2228 7.2323 65.9586 3.90544 65.8139 0C63.9336 0.578584 61.3299 1.8804 60.1728 3.4715C59.0156 5.06261 57.8584 6.65371 58.5817 10.9931C57.1352 11.1377 55.5441 11.2824 54.0976 11.2824C53.3744 11.2824 52.3619 11.2824 51.6386 11.427C51.3494 11.5717 51.2047 11.7163 51.2047 11.7163C51.2047 11.861 51.494 12.1503 51.7833 12.1503C52.6512 12.1503 53.519 12.1503 54.3869 12.0056C55.8334 11.861 57.2798 11.861 58.7263 11.7163C61.4746 15.7664 63.355 16.345 65.2354 16.9236C67.1158 17.3575 69.7194 16.6343 71.4551 15.7664C69.1408 13.0181 66.3925 11.427 63.355 11.1377C65.0907 10.7038 66.8265 10.2699 68.5622 9.83592C72.757 11.1377 74.6373 10.4145 76.3731 9.69128C78.1088 8.8234 79.8446 6.79836 80.7125 5.06261C76.807 4.05009 73.0462 5.06261 70.0087 7.81088Z" fill="#CFDADA"/>
</svg>
