<svg width="36" height="36" viewBox="0 0 36 36" fill="none" xmlns="http://www.w3.org/2000/svg">
<path d="M18 36C27.9411 36 36 27.9411 36 18C36 8.05888 27.9411 0 18 0C8.05888 0 0 8.05888 0 18C0 27.9411 8.05888 36 18 36Z" fill="#4FCE5D"/>
<path d="M19.3847 8.01786C13.8836 7.68998 9.12937 11.916 8.8197 17.4171C8.71041 19.2204 9.09293 21.0056 9.91264 22.5903L8 27.7089L13.5922 26.5431C14.9766 27.3992 16.5613 27.8911 18.2189 27.9821C23.72 28.31 28.4743 24.084 28.784 18.5829C29.0936 13.0818 24.8858 8.34574 19.3847 8.01786ZM18.2918 26.361C16.6524 26.2699 15.1587 25.7052 13.9018 24.8126L13.7743 24.8308L10.532 25.5048L11.6795 22.4446C10.787 21.0238 10.3134 19.3115 10.4227 17.5082C10.6959 12.8996 14.6487 9.36581 19.2754 9.63905C23.884 9.91228 27.4178 13.8651 27.1446 18.4918C26.8713 23.1004 22.9186 26.6342 18.2918 26.361Z" fill="white"/>
<path d="M17.2907 15.4499C17.2907 15.4499 17.5639 15.9235 17.236 16.2696C16.9264 16.6157 16.6531 16.8707 16.6531 16.8707C16.6531 16.8707 16.3799 17.0529 16.6167 17.4354C16.8535 17.8362 17.8371 19.5484 19.6405 20.3863C19.6405 20.3863 20.2052 20.6596 20.4784 20.1313L21.1159 19.4027C21.1159 19.4027 21.2617 19.2205 21.6988 19.4391C22.136 19.6577 23.5204 20.441 23.5204 20.441C23.5204 20.441 23.7754 20.5503 23.7026 20.9146C23.6297 21.2971 23.4111 22.7544 21.3527 22.7908C21.3527 22.7908 19.3672 22.7362 17.2542 20.8964C15.9245 19.7488 15.0319 18.3462 14.5401 17.3808C14.5037 17.3079 14.4855 17.2533 14.449 17.1986C14.194 16.6157 14.0301 15.9782 14.0847 15.3771C14.0847 15.3042 14.1029 15.2313 14.1029 15.1585C14.194 14.5027 14.5037 13.7194 15.542 13.3187C15.542 13.3187 16.3617 13.2458 16.4892 13.3733L17.2907 15.4499Z" fill="white"/>
</svg>
