<svg width="36" height="36" viewBox="0 0 36 36" fill="none" xmlns="http://www.w3.org/2000/svg">
<path d="M18 36C27.9411 36 36 27.9411 36 18C36 8.05888 27.9411 0 18 0C8.05888 0 0 8.05888 0 18C0 27.9411 8.05888 36 18 36Z" fill="#0E76A8"/>
<path d="M13.6804 11.7289C13.6804 12.7053 12.9669 13.4565 11.8027 13.4565C10.7136 13.4565 10 12.6678 10 11.7289C10 10.7525 10.7136 10.0013 11.8402 10.0013C12.9669 9.96379 13.6429 10.7149 13.6804 11.7289ZM10.0751 26V14.8085H13.5678V26H10.0751Z" fill="white"/>
<path d="M15.6318 18.3762C15.6318 16.9866 15.5942 15.8224 15.5566 14.8084H18.5611L18.7113 16.3482H18.7864C19.2371 15.6346 20.3637 14.5455 22.2415 14.5455C24.5324 14.5455 26.2224 16.0853 26.2224 19.3526V25.9624H22.7673V19.8033C22.7673 18.3762 22.2791 17.3622 21.0022 17.3622C20.0257 17.3622 19.4624 18.0382 19.2371 18.6766C19.162 18.902 19.1244 19.24 19.1244 19.5404V26H15.6693V18.3762H15.6318Z" fill="white"/>
</svg>
