<svg width="25" height="18" viewBox="0 0 25 18" fill="none" xmlns="http://www.w3.org/2000/svg">
<path fill-rule="evenodd" clip-rule="evenodd" d="M1.47188 0H22.8811C23.7174 0 24.3529 0.689655 24.3529 1.51724V16.3793C24.3529 17.2414 23.6839 18 22.8811 18H1.47188C0.669037 18 0 17.2414 0 16.3793V1.51724C0 0.689655 0.669037 0 1.47188 0ZM3.14447 4.24138C2.24127 3.65517 3.21138 2.27586 4.14803 2.89655L12.2099 8.93103L20.3387 2.89655C21.175 2.31034 22.1451 3.65517 21.2419 4.24138L12.6782 10.6207C12.4441 10.7931 12.0092 10.8621 11.6747 10.6207L3.14447 4.24138Z" fill="#20CDC1"/>
</svg>
