<svg width="25" height="25" viewBox="0 0 25 25" fill="none" xmlns="http://www.w3.org/2000/svg">
<path d="M12.5 25C19.4036 25 25 19.4036 25 12.5C25 5.59644 19.4036 0 12.5 0C5.59644 0 0 5.59644 0 12.5C0 19.4036 5.59644 25 12.5 25Z" fill="#20CDC1"/>
<path d="M11.1579 19.4446V13.1196H9.02783V10.6417H11.1579V8.81597C11.1579 6.70764 12.4403 5.55566 14.3313 5.55566C15.2441 5.55566 16.0049 5.62087 16.244 5.66434V7.85961H14.9398C13.9183 7.85961 13.7227 8.33779 13.7227 9.05506V10.6417H16.157L15.831 13.0978H13.7009V19.4446H11.1579Z" fill="#F4F4F4"/>
</svg>
