<svg width="36" height="36" viewBox="0 0 36 36" fill="none" xmlns="http://www.w3.org/2000/svg">
<path d="M18 36C27.9411 36 36 27.9411 36 18C36 8.05888 27.9411 0 18 0C8.05888 0 0 8.05888 0 18C0 27.9411 8.05888 36 18 36Z" fill="#3B5998"/>
<path d="M16.0673 28V18.892H13V15.3239H16.0673V12.6948C16.0673 9.65884 17.9139 8 20.6369 8C21.9515 8 23.0469 8.0939 23.3912 8.15649V11.3177H21.5133C20.0423 11.3177 19.7606 12.0063 19.7606 13.0391V15.3239H23.266L22.7966 18.8607H19.7293V28H16.0673Z" fill="white"/>
</svg>
