<svg width="36" height="36" viewBox="0 0 36 36" fill="none" xmlns="http://www.w3.org/2000/svg">
<path d="M18 36C27.9411 36 36 27.9411 36 18C36 8.05888 27.9411 0 18 0C8.05888 0 0 8.05888 0 18C0 27.9411 8.05888 36 18 36Z" fill="#0088CC"/>
<path fill-rule="evenodd" clip-rule="evenodd" d="M22.5867 25.3321L25.5177 10.5661C25.5177 9.58296 24.1659 10.179 24.172 10.179L7.72239 16.6311C7.72239 16.6311 6.942 16.8953 7.00345 17.3869C7.0649 17.8784 7.69781 18.1058 7.69781 18.1058L11.8333 19.5007L11.8385 19.5032C11.8379 19.5015 11.8377 19.5006 11.8377 19.5006L21.7738 13.1899C21.7738 13.1899 22.3453 12.8396 22.3269 13.1899C22.3269 13.1899 22.4313 13.2514 22.1241 13.5402C21.8168 13.829 14.3202 20.5637 14.3202 20.5637L14.3044 20.6967L21.0505 25.8667C22.175 26.3583 22.5867 25.3321 22.5867 25.3321Z" fill="white"/>
<path d="M16.8876 22.6713L14.2146 25.1108C14.2146 25.1108 14.0057 25.2706 13.7783 25.1723L14.2883 20.6436" fill="white"/>
</svg>
