<svg width="200" height="46" fill="none" xmlns="http://www.w3.org/2000/svg"><path d="M102.721 30.578c0 2.548 1.012 3.822 3.073 3.822 1.911 0 4.309-1.124 7.12-3.41 3.11-2.473 5.208-5.059 6.37-7.757 1.312-3.073 1.949-5.696 1.949-7.832 0-2.173-.45-3.784-1.312-4.871-.862-1.087-2.061-1.649-3.597-1.649-.337 0-.712.037-1.087.075-.637.15-1.124.225-1.424.225-.3 0-.45-.075-.45-.225 0-.225.263-.45.75-.675.487-.224.862-.337 1.124-.337h1.199c1.537 0 2.923.6 4.197 1.799 1.274 1.199 2.099 2.96 2.473 5.284.075.562.113 1.124.113 1.723 0 1.986-.45 4.235-1.387 6.745-1.311 3.298-3.56 6.108-6.745 8.432-3.185 2.323-6.108 3.485-8.806 3.485-2.773 0-4.497-1.274-5.134-3.86-.187-.675-.262-1.574-.262-2.736 0-1.161.262-2.66.824-4.496-1.423 2.398-3.297 5.021-5.62 7.794-1.237 1.499-2.549 2.736-3.86 3.71-1.387 1.049-2.548 1.574-3.522 1.574-1.912 0-2.848-1.162-2.848-3.448 0-2.698 1.76-8.206 5.246-16.488 2.173-5.283 3.297-9.256 3.297-11.879 0-1.723-.524-2.885-1.536-3.56-1.012-.637-2.248-.974-3.672-.974-.6 0-1.237.075-1.911.188-4.722.974-8.919 3.522-12.591 7.644-1.799 2.098-3.073 4.085-3.747 5.996-.712 1.91-1.087 3.335-1.2 4.234-.112.937-.15 1.686-.15 2.286 0 .6.113 1.274.338 2.06.225.788.637 1.5 1.199 2.174 1.05 1.2 2.51 1.799 4.347 1.799 3.11 0 5.546-1.611 7.382-4.834.937-1.649 1.386-3.148 1.386-4.497 0-2.173-.974-3.297-2.923-3.297-.337 0-.712.037-1.199.112-.487.075-.712.037-.674-.15.037-.187.375-.374 1.087-.6a6.825 6.825 0 012.098-.337c1.386 0 2.398.525 3.035 1.612.412.674.6 1.461.6 2.36 0 .9-.263 1.949-.75 3.148-1.349 3.11-3.822 5.434-7.344 6.895-.937.412-1.799.6-2.586.6-2.623 0-4.684-.937-6.258-2.81-1.087-1.275-1.799-2.924-2.098-4.985-.038-.412-.075-.824-.075-1.236 0-1.724.45-3.56 1.311-5.546.862-1.986 2.061-3.822 3.56-5.546 1.5-1.724 3.11-3.148 4.872-4.272 1.76-1.162 3.634-2.098 5.583-2.885C84.51.375 86.383 0 88.144 0c1.724 0 3.298.262 4.722.787 2.548 1.124 3.86 3.26 3.86 6.445 0 2.623-.9 5.958-2.698 10.005-1.237 2.736-2.399 5.696-3.523 8.844-1.611 4.497-2.398 7.42-2.398 8.768 0 .975.337 1.424 1.012 1.424.337 0 .75-.15 1.236-.487 1.424-.862 2.998-2.473 4.722-4.834 1.724-2.36 3.485-5.133 5.321-8.281 1.836-3.148 3.148-5.246 3.935-6.333.786-1.05 1.424-1.611 1.986-1.611.15 0 .262.037.412.075.337.187.524.562.524 1.086 0 .525-.075 1.012-.224 1.424-.15.412-.825 2.136-2.061 5.097-1.237 2.96-1.911 4.946-2.061 5.883-.113 1.086-.188 1.798-.188 2.286zM125.729 26.269c-.374.899-.562 1.91-.562 3.035 0 .75.15 1.349.487 1.799.338.45.825.674 1.424.674 2.436 0 4.647-2.286 6.596-6.857.187-.413.412-.6.674-.563.112.038.15.076.15.188s-.3.824-.899 2.098c-.6 1.312-1.199 2.361-1.837 3.148-1.349 1.874-3.035 2.81-5.058 2.81-1.087 0-1.986-.337-2.736-1.049-.749-.712-1.124-1.648-1.124-2.848 0-1.199.3-2.473.862-3.822.562-1.349 1.349-2.585 2.361-3.747.974-1.162 2.136-2.024 3.41-2.548.599-.262 1.199-.412 1.761-.412.562 0 1.087.15 1.574.487.449.374.674.787.674 1.236 0 1.612-.974 3.148-2.885 4.61-.6.45-1.424.861-2.473 1.236-1.012.337-1.837.525-2.399.525zm6.745-6.408c0-.525-.224-.787-.637-.787-.749 0-1.873.937-3.41 2.773a20.041 20.041 0 00-2.398 3.747c.45 0 1.124-.15 1.986-.487.862-.337 1.612-.75 2.249-1.274 1.461-1.237 2.21-2.586 2.21-3.972z" fill="#555"/><path d="M142.255 30.128c0 .862.337 1.274 1.049 1.274 1.237 0 2.923-2.099 5.021-6.295.075-.15.15-.338.225-.488a.734.734 0 01.337-.337c.15-.037.263-.037.3.113.038.112.038.3-.075.562-2.136 4.984-4.309 7.457-6.483 7.457-.712 0-1.311-.337-1.723-.975-.412-.637-.637-1.274-.637-1.91 0-.638.075-1.2.187-1.724-1.574 2.585-2.923 4.047-4.047 4.384-.337.15-.637.187-.937.187-.3 0-.599-.037-.899-.112-1.312-.337-1.949-1.387-1.949-3.11 0-1.162.3-2.474.9-3.898.599-1.424 1.461-2.81 2.548-4.122a8.143 8.143 0 013.972-2.66c.562-.187 1.236-.262 1.986-.262.749 0 1.611.224 2.548.712 1.799-3.41 3.373-6.595 4.647-9.48.374-.9.749-1.462 1.086-1.687.375-.262.712-.375 1.012-.375h.562c.075 0 .337.038.75.113.449.074.787.074 1.011.074-.599.563-2.248 3.298-4.871 8.17-3.373 6.257-5.396 10.417-6.071 12.478-.299.75-.449 1.386-.449 1.91zm1.986-10.53c-.337-.337-.825-.524-1.462-.524s-1.499.45-2.623 1.386c-1.798 1.499-3.26 3.335-4.459 5.508-.787 1.424-1.162 2.623-1.162 3.56 0 .413.075.825.263 1.162.187.337.449.525.824.525.899 0 2.024-.937 3.373-2.81 1.311-1.837 3.072-4.797 5.246-8.807z" fill="#555"/><path d="M156.981 30.128c0 .862.338 1.274 1.05 1.274 1.236 0 2.922-2.099 5.021-6.296.075-.15.15-.337.225-.487a.734.734 0 01.337-.337c.15-.037.262-.037.3.113.037.112.037.3-.075.562-2.136 4.983-4.309 7.457-6.483 7.457-.712 0-1.311-.338-1.724-.975-.412-.637-.637-1.274-.637-1.91 0-.638.075-1.2.188-1.724-1.537 2.548-2.886 4.01-4.01 4.346-.337.15-.637.188-.937.188-.299 0-.599-.038-.899-.113-1.312-.337-1.949-1.386-1.949-3.11 0-1.162.3-2.473.9-3.897.599-1.424 1.461-2.81 2.548-4.122a8.148 8.148 0 013.972-2.66c.562-.188 1.237-.263 1.986-.263.749 0 1.611.225 2.548.712 1.799-3.41 3.373-6.595 4.647-9.48.375-.9.749-1.462 1.086-1.687.375-.262.712-.375 1.012-.375h.562c.075 0 .338.038.75.113.449.075.787.075 1.012.075-.6.562-2.249 3.297-4.872 8.169-3.372 6.258-5.396 10.417-6.07 12.478-.375.787-.488 1.424-.488 1.949zm1.949-10.53c-.337-.337-.824-.525-1.461-.525-.637 0-1.499.45-2.624 1.387-1.798 1.499-3.26 3.335-4.459 5.508-.787 1.424-1.161 2.623-1.161 3.56 0 .412.075.825.262 1.162.187.337.45.524.824.524.9 0 2.024-.936 3.373-2.81 1.349-1.836 3.073-4.796 5.246-8.806z" fill="#555"/><path d="M164.776 31.552c.524 0 1.049-.262 1.611-.75.974-.974 2.248-2.997 3.747-6.032.188-.413.375-.525.562-.375.038.037.075.15.075.262 0 .113-.112.412-.337.9-.225.45-.412.899-.562 1.274-.187.374-.525.974-1.012 1.836-.487.824-.937 1.499-1.349 1.948-1.086 1.237-2.136 1.874-3.11 1.874-.974 0-1.686-.3-2.098-.9-.413-.599-.637-1.236-.637-1.948s.187-1.499.524-2.36l2.548-6.52c.038-.15.075-.376.075-.638s-.15-.6-.487-1.05l2.211-.037c.6 0 .974.113 1.087.338.112.224.037.562-.225 1.049l-3.185 7.494c-.45.975-.675 1.836-.675 2.511 0 .75.412 1.124 1.237 1.124zm3.934-14.69a1.786 1.786 0 01-1.236.488c-.45 0-.825-.15-1.087-.487a1.586 1.586 0 01-.337-1.162c.075-.45.3-.824.674-1.161a1.789 1.789 0 011.237-.487c.45 0 .824.15 1.087.487.262.337.374.712.299 1.161-.037.45-.262.862-.637 1.162z" fill="#555"/><path d="M182.275 19.298c-3.297 5.77-4.908 9.518-4.908 11.28 0 .711.262 1.049.749 1.049 1.349 0 3.185-2.324 5.471-6.933.15-.375.337-.524.487-.45.15.075.225.188.225.338 0 .15-.038.3-.15.487-1.424 2.848-2.623 4.834-3.597 5.92-.975 1.087-1.949 1.612-2.923 1.612s-1.724-.375-2.211-1.124c-.262-.338-.412-.825-.412-1.424 0-.6.15-1.312.412-2.174.262-.862 1.012-2.248 2.211-4.16.3-.486.45-.861.45-1.123 0-.263-.225-.413-.675-.413-.45 0-1.312.6-2.586 1.8-1.911 1.76-3.784 4.42-5.583 7.943-.15.263-.337.45-.525.488a8.913 8.913 0 01-1.199.15c-.599.037-.974.074-1.161.187.412-.862 1.274-2.586 2.51-5.246 2.249-4.684 3.71-7.345 4.422-8.02.337-.337.749-.487 1.312-.487.112 0 .374.038.824.113.45.075.749.112.974.037-.974.525-2.585 3.035-4.834 7.532 1.237-1.536 2.399-2.773 3.41-3.71 1.012-.936 2.249-1.76 3.71-2.548 1.424-.787 2.511-1.199 3.148-1.199.15 0 .3.038.449.075z" fill="#555"/><path d="M180.814 45.08c-2.511 0-3.747-1.012-3.747-3.073 0-1.724 1.161-3.26 3.485-4.61 1.986-1.161 4.496-2.21 7.569-3.26 1.424-.45 2.436-.824 3.073-1.086.712-2.024 1.049-4.235 1.049-6.633 0-.487-.037-.824-.075-1.087-.749 1.537-1.761 3.073-3.073 4.684-1.536 1.912-3.072 2.661-4.609 2.249-1.386-.6-2.098-1.724-2.098-3.448 0-2.285 1.162-4.834 3.447-7.57 1.237-1.498 2.736-2.435 4.422-2.847.45-.15.899-.187 1.349-.187 1.199 0 2.361.412 3.523 1.199.412.337.637.637.637.9 0 .224-.075.486-.225.711-.15.225-.338.262-.487.075-.188-.187-.3-.337-.338-.487-.337-.974-.899-1.499-1.686-1.499-1.424 0-2.998.974-4.759 2.96a21.617 21.617 0 00-2.548 3.598c-.899 1.611-1.312 2.848-1.312 3.71 0 .861.263 1.46.787 1.723.188.075.375.113.562.113.6 0 1.387-.413 2.286-1.274.937-.825 1.761-1.912 2.548-3.186.787-1.311 1.274-2.285 1.499-3.035.225-.712.487-1.162.787-1.349.3-.187.637-.3 1.012-.337.375-.038.637-.075.749-.188.225 1.2.338 2.624.338 4.235 0 1.611-.263 3.447-.825 5.508 1.237-.899 2.099-1.686 2.623-2.36.525-.712.937-1.312 1.237-1.874.3-.562.562-1.124.824-1.649.225-.562.413-.9.487-1.05a.58.58 0 01.413-.299c.187-.037.262.038.262.262 0 .15-.037.3-.112.488-1.162 2.435-2.174 4.197-2.961 5.283-.787 1.087-1.873 1.949-3.222 2.586-.637 1.799-1.574 3.635-2.773 5.396-1.2 1.799-2.736 3.372-4.572 4.721-1.874 1.312-3.71 1.986-5.546 1.986zm-2.923-2.324c0 1.012.637 1.537 1.949 1.537.787 0 1.649-.225 2.623-.675.974-.45 1.799-.937 2.436-1.386 1.086-.9 2.285-2.174 3.597-3.935.974-1.386 1.761-2.735 2.286-4.047l-1.387.487c-4.159 1.424-7.12 2.736-8.806 3.86-1.236.824-2.098 1.873-2.473 3.147-.15.375-.225.75-.225 1.012zM48.28 7.92c.745-.107 1.596-.213 2.234-.213 1.276-1.702 1.702-3.084 1.276-4.041-.744-1.915-5.53-1.808-12.123-.213.85.319 1.808.744 2.658 1.17 2.127 1.063 4.148 2.127 5.956 3.296zM2.446 25.254c.425.85 1.702 1.489 3.616 1.701h.212c1.702-1.595 4.148-3.51 7.02-5.317a27.606 27.606 0 01-3.297-5.105c-5.424 3.616-8.402 6.913-7.551 8.72z" fill="#555"/><path d="M31.372 18.873c1.17 0 2.233.425 3.084 1.063 5.955-3.084 10.847-6.593 13.931-9.677a59.508 59.508 0 00-6.806-3.828C27.97.05 14.357.58 11.166 7.494c-2.34 4.998 1.383 12.017 8.827 17.973 2.02-.532 4.147-1.17 6.38-2.021.107-1.17.639-2.233 1.49-3.084.85-.957 2.126-1.489 3.509-1.489z" fill="#20CDC1"/><path d="M49.77 11.216c-3.403 3.19-8.401 6.594-14.357 9.678.638.85 1.064 1.914 1.064 3.084a5.064 5.064 0 01-1.49 3.615 5.064 5.064 0 01-3.615 1.49 5.064 5.064 0 01-3.616-1.49c-.744-.744-1.17-1.701-1.382-2.658-1.702.638-3.297 1.17-4.998 1.595a45.846 45.846 0 008.4 4.892c13.613 6.38 27.225 5.849 30.416-1.064 2.552-5.317-1.914-12.974-10.422-19.142z" fill="#20CDC1"/><path d="M9.358 6.643l-3.403 7.125c-1.808 3.935-.744 8.72 2.659 13.4 2.446 0 5.636-.32 9.04-1.17C10.315 19.618 6.7 12.173 9.357 6.643zM62 31.209c-3.616 7.976-18.398 8.826-32.968 2.02-3.722-1.701-7.018-3.828-9.89-6.061-3.403.85-6.487 1.382-9.146 1.595 3.616 4.36 9.04 8.401 15.74 11.592 14.782 6.912 29.351 5.955 33.073-2.021L62 31.209zM42.22 19.298c1.275.638 2.233 1.383 2.87 2.127.639.85.745 1.595.532 2.233-.319.638-.957 1.064-1.914 1.064s-2.446-.213-4.36-.851l-.106 2.34c2.658.957 4.785 1.382 6.38 1.382 1.49 0 2.765-.532 3.722-1.489l3.616 1.702.745-1.595-3.722-1.702c0-1.276-.745-2.552-1.915-3.935-1.276-1.382-2.871-2.446-4.892-3.403-.212-.106-.425-.106-.531-.212-.851.531-1.702 1.063-2.659 1.595a7.817 7.817 0 012.233.744zM34.456 19.83c.106 0 .213-.106.32-.106a76.647 76.647 0 006.06-3.51c-1.169-.425-2.339-.638-3.402-.638-.638 0-1.383.106-2.127.213-.745.213-1.702.532-2.659.85-1.17.532-2.02.745-2.765.745-.744 0-1.489-.213-2.34-.638-.85-.425-1.595-.957-2.02-1.595-.425-.638-.532-1.276-.319-1.808.425-.85 1.701-1.063 3.828-.745l-1.17-2.658c-1.7-.32-2.977-.426-3.828-.213-.85.107-1.701.426-2.233 1.064l-3.51-1.702-.744 1.702 3.51 1.701c0 .638.106 1.17.425 1.808.213.532.638 1.17 1.17 1.702.531.531 1.063 1.063 1.701 1.488.638.532 1.383.958 2.233 1.383.639.319 1.277.532 1.915.744.85-.638 1.914-.957 2.977-.957 1.064.213 2.127.532 2.978 1.17z" fill="#555"/><path d="M31.372 18.66a5.22 5.22 0 00-5.211 5.211 5.22 5.22 0 005.21 5.211 5.22 5.22 0 005.212-5.21c0-2.766-2.34-5.212-5.211-5.212zm4.573 3.404l-1.702-.958-.85-1.808c1.063.532 2.126 1.596 2.552 2.766zm0 .212l-1.808 1.383v-2.234l1.808.851zm0 3.297l-1.808.85V24.19l1.808 1.383zm-7.125-1.595l2.552-2.553 2.552 2.553-2.552 2.552-2.552-2.552zm2.233 2.552h-2.34v-2.233l2.34 2.233zm-2.34-2.871v-2.34h2.34l-2.34 2.34zm5.211.638v2.34h-2.34l2.34-2.34zm-2.233-2.978h2.34v2.34l-2.34-2.34zm2.127-.213h-2.233l1.382-1.808.85 1.808zm-2.446-2.127c.532 0 1.063.107 1.489.213l-1.49 1.914-1.488-1.914c.532-.106.957-.213 1.489-.213zm-.32 2.127H28.82l.85-1.808 1.383 1.808zm-1.594-1.808l-.851 1.808-1.808.851c.425-1.063 1.489-2.127 2.659-2.659zm-.957 2.127v2.234l-1.808-1.383 1.808-.85zm-2.127 2.553c0-.532.106-1.064.212-1.49l1.915 1.49-1.915 1.488c-.106-.531-.212-.957-.212-1.488zm2.127.212v2.234l-1.808-.851L28.5 24.19zm-1.702 1.702l1.808.85.85 1.808c-1.17-.425-2.233-1.488-2.658-2.658zm2.127.957h2.233l-1.382 1.701-.851-1.701zm2.446 2.127c-.532 0-1.064-.106-1.489-.213l1.489-1.914 1.489 1.914c-.426.107-.957.213-1.49.213zm.319-2.127h2.233l-.85 1.701-1.383-1.701zm1.595 1.701l.85-1.807 1.809-.851c-.426 1.17-1.489 2.233-2.659 2.659zm.957-4.572l1.914-1.49c.107.426.213.958.213 1.49 0 .531-.106 1.063-.212 1.488l-1.915-1.488z" fill="#20CDC1"/><path d="M26.374 24.935C13.4 29.614 1.914 30.039 0 26.742c1.276 2.765.85 2.021 2.34 4.999 2.552 4.147 13.187 1.701 26.16-3.616-.212-.213-.425-.32-.637-.532-.851-.744-1.277-1.701-1.49-2.658zM56.895 7.92c-.532-1.49-1.064-3.19-2.552-5.424.106.106.106.213.106.213C56.044 6.218 47.962 14.513 35.413 21c.638.85 1.064 1.914 1.064 2.978 0 .212 0 .425-.107.638C49.238 18.66 58.384 12.492 56.895 7.919z" fill="#20CDC1"/><path d="M83.723 44.593v.45h-2.174v-3.635h.525v3.185h1.649zM84.922 43.244c0-.3.038-.6.15-.825.075-.225.225-.45.375-.6.15-.15.337-.262.562-.374.225-.075.45-.112.674-.112.225 0 .45.037.675.112.224.075.374.187.562.375.187.187.3.374.374.6.076.224.15.524.15.824 0 .3-.037.6-.15.824-.112.225-.224.45-.374.6-.15.15-.338.262-.562.374a1.96 1.96 0 01-.675.113c-.225 0-.45-.038-.674-.113a1.152 1.152 0 01-.562-.374 1.63 1.63 0 01-.375-.6c-.075-.262-.15-.525-.15-.824zm.562 0c0 .224.038.412.075.6.038.187.15.336.225.449.075.112.225.225.375.3.15.075.3.112.487.112s.337-.037.487-.112a.952.952 0 00.375-.3.855.855 0 00.224-.45c.038-.187.075-.375.075-.6a2.91 2.91 0 00-.075-.599c-.037-.187-.15-.337-.224-.45a1.468 1.468 0 00-.375-.3c-.15-.074-.3-.112-.487-.112-.188 0-.338.038-.487.113a.952.952 0 00-.375.3.854.854 0 00-.225.45c-.037.186-.075.374-.075.599zM92.529 45.042a2.11 2.11 0 01-.15-.45c-.037-.15-.112-.3-.15-.449H90.58l-.337.937h-.524c.15-.375.262-.75.374-1.05a6.97 6.97 0 01.375-.936c.15-.3.225-.562.337-.825.113-.262.225-.524.375-.787h.45c.112.263.262.525.374.787.113.263.225.562.338.825.112.262.224.6.374.937.113.337.263.674.375 1.049h-.562v-.038zm-.45-1.349l-.337-.899c-.112-.3-.225-.562-.337-.824-.113.262-.225.524-.338.824-.112.3-.224.562-.337.9h1.35zM97.138 45.042c-.075-.112-.15-.262-.262-.45-.113-.15-.225-.337-.338-.487a4.534 4.534 0 00-.374-.524c-.113-.188-.263-.338-.375-.525-.112-.15-.225-.337-.375-.487-.112-.15-.225-.262-.337-.375v2.848h-.487v-3.635h.412c.15.188.337.375.525.6.187.225.374.487.562.712.187.262.375.487.525.712.15.225.3.45.412.637V41.37h.487v3.635h-.375v.037zM103.321 45.117c-.262 0-.487-.037-.712-.112-.225-.075-.375-.225-.525-.375-.15-.15-.262-.375-.337-.6a2.74 2.74 0 01-.112-.824c0-.3.037-.562.15-.824.074-.225.224-.45.374-.6.15-.15.338-.3.562-.375.225-.075.45-.112.675-.112.15 0 .3 0 .412.037.112.038.225.038.3.075.075.038.15.038.225.075.037.038.112.038.112.075l-.15.412c-.037-.037-.075-.037-.15-.075-.075-.037-.112-.037-.187-.075-.075-.037-.15-.037-.262-.074-.075 0-.188-.038-.263-.038-.187 0-.374.038-.524.112-.15.075-.3.15-.375.3-.112.113-.187.263-.262.45-.075.187-.075.375-.075.6 0 .224.037.412.075.6a.847.847 0 00.225.449c.112.112.224.225.374.3.15.075.337.112.525.112a2.9 2.9 0 00.599-.075c.15-.037.263-.075.338-.15l.112.412c-.037 0-.075.038-.112.075-.075.038-.15.038-.225.075-.113.038-.188.038-.337.075-.15.038-.3.075-.45.075zM107.443 45.117c-.225 0-.45-.037-.637-.112-.187-.075-.3-.188-.412-.3-.113-.112-.188-.262-.263-.45-.074-.187-.074-.375-.074-.562v-2.286h.524v2.211c0 .375.075.637.225.787.15.15.375.262.637.262a.895.895 0 00.337-.075.67.67 0 00.263-.187.728.728 0 00.187-.337c.037-.15.075-.3.075-.487V41.37h.524v2.286c0 .187-.037.374-.074.562a.9.9 0 01-.263.45 1.652 1.652 0 01-.412.3c-.15.074-.412.15-.637.15zM112.502 43.543c.037.075.112.15.225.263.074.112.187.225.262.374.075.15.187.3.262.45l.225.45h-.562c-.075-.15-.15-.262-.225-.412a1.354 1.354 0 00-.262-.375c-.113-.113-.15-.225-.263-.337-.112-.113-.149-.188-.224-.3h-.75v1.424h-.524v-3.598c.149-.037.299-.075.487-.075h.487c.524 0 .899.113 1.161.3.263.188.413.487.413.862 0 .225-.075.45-.188.637-.112.188-.262.225-.524.337zm-.75-1.723h-.487v1.386h.375c.187 0 .337 0 .487-.037.15 0 .262-.038.337-.113a.336.336 0 00.225-.225.885.885 0 00.075-.337.742.742 0 00-.075-.337.628.628 0 00-.225-.225 2.533 2.533 0 00-.3-.112h-.412zM117.673 45.042c-.075-.15-.112-.3-.15-.45-.037-.15-.112-.3-.15-.449h-1.648l-.338.937h-.524c.15-.375.262-.75.374-1.05.113-.337.225-.636.375-.936.15-.3.225-.562.337-.825.113-.262.225-.524.375-.787h.45c.112.263.262.525.374.787.113.263.225.562.338.825.112.262.225.6.374.937.113.337.263.674.375 1.049h-.562v-.038zm-.487-1.349l-.337-.899c-.113-.3-.225-.562-.338-.824-.112.262-.224.524-.337.824-.112.3-.225.562-.337.9h1.349zM121.833 41.407v.45h-1.162v3.185h-.525v-3.185h-1.161v-.45h2.848zM123.444 41.407h.524v3.635h-.524v-3.635zM125.73 43.244c0-.3.037-.6.15-.825.074-.225.224-.45.374-.6a2.1 2.1 0 01.562-.374c.225-.075.45-.112.675-.112.225 0 .449.037.674.112.225.075.375.187.562.375.188.187.3.374.375.6.075.224.15.524.15.824 0 .3-.037.6-.15.824-.112.225-.225.45-.375.6-.149.15-.337.262-.562.374a1.96 1.96 0 01-.674.113c-.225 0-.45-.038-.675-.113a1.15 1.15 0 01-.562-.374c-.15-.15-.3-.375-.374-.6-.075-.262-.15-.525-.15-.824zm.562 0c0 .224.037.412.075.6.037.187.15.336.224.449.075.112.225.225.375.3.15.075.3.112.487.112.188 0 .338-.037.487-.112a.949.949 0 00.375-.3.848.848 0 00.225-.45c.038-.187.075-.375.075-.6 0-.224-.037-.412-.075-.599-.037-.187-.15-.337-.225-.45a1.461 1.461 0 00-.375-.3 1.033 1.033 0 00-.487-.112c-.187 0-.337.038-.487.113a.956.956 0 00-.375.3.853.853 0 00-.224.45 2.876 2.876 0 00-.075.599zM133.524 45.042c-.075-.112-.15-.262-.262-.45-.113-.15-.225-.337-.338-.487a4.466 4.466 0 00-.374-.524c-.113-.188-.263-.338-.375-.525-.112-.15-.225-.337-.375-.487-.112-.15-.225-.262-.337-.375v2.848h-.487v-3.635h.412c.15.188.337.375.525.6.187.225.374.487.562.712.187.262.374.487.524.712.15.225.3.45.413.637V41.37h.487v3.635h-.375v.037zM139.107 41.37c.525 0 .9.112 1.162.3.262.187.412.487.412.861 0 .225-.037.375-.112.525-.075.15-.188.262-.338.375-.149.075-.299.15-.524.187a3.72 3.72 0 01-.675.075h-.374v1.35h-.525v-3.598a1.9 1.9 0 01.487-.075h.487zm.038.45h-.487v1.423h.374c.188 0 .338 0 .487-.037.15-.037.263-.075.338-.112.075-.038.187-.113.225-.225.037-.113.074-.225.074-.375a.756.756 0 00-.074-.337.645.645 0 00-.225-.225c-.113-.075-.188-.075-.338-.113h-.374zM144.578 44.593v.45h-2.173v-3.636h.525v3.186h1.648zM148.738 45.042c-.075-.15-.113-.3-.15-.45-.038-.15-.112-.3-.15-.449h-1.649l-.337.937h-.525c.15-.375.263-.75.375-1.05.113-.337.225-.636.375-.936.15-.3.225-.562.337-.825.112-.262.225-.524.375-.787h.449c.113.263.263.525.375.787.113.263.225.562.337.825.113.262.225.6.375.937.113.337.262.674.375 1.049h-.562v-.038zm-.487-1.349l-.338-.899a17.48 17.48 0 00-.337-.824c-.112.262-.225.524-.337.824-.113.3-.225.562-.337.9h1.349zM152.935 41.407v.45h-1.162v3.185h-.525v-3.185h-1.161v-.45h2.848zM154.509 45.042v-3.635h2.21v.45h-1.686v1.087h1.499v.412h-1.499v1.686h-.524zM158.181 43.244c0-.3.037-.6.15-.825.075-.225.225-.45.375-.6.149-.15.337-.262.562-.374.224-.075.449-.112.674-.112.225 0 .45.037.675.112.224.075.374.187.562.375.187.187.299.374.374.6.075.224.15.524.15.824 0 .3-.037.6-.15.824-.112.225-.224.45-.374.6-.15.15-.338.262-.562.374a1.966 1.966 0 01-.675.113c-.225 0-.45-.038-.674-.113a1.146 1.146 0 01-.562-.374c-.15-.15-.3-.375-.375-.6a2.007 2.007 0 01-.15-.824zm.525 0c0 .224.037.412.074.6.038.187.15.336.225.449.075.112.225.225.375.3.15.075.3.112.487.112.188 0 .337-.037.487-.112a.949.949 0 00.375-.3.862.862 0 00.225-.45c.037-.187.075-.375.075-.6 0-.224-.038-.412-.075-.599-.038-.187-.15-.337-.225-.45a1.461 1.461 0 00-.375-.3 1.036 1.036 0 00-.487-.112c-.187 0-.337.038-.487.113a.956.956 0 00-.375.3.862.862 0 00-.225.45 2.947 2.947 0 00-.074.599zM165.226 43.543c.037.075.112.15.225.263.074.112.187.225.262.374.075.15.187.3.262.45l.225.45h-.562c-.075-.15-.15-.262-.225-.412a1.354 1.354 0 00-.262-.375c-.113-.113-.15-.225-.263-.337-.112-.113-.149-.188-.224-.3h-.75v1.424h-.524v-3.598c.149-.037.299-.075.487-.075h.487c.524 0 .899.113 1.161.3.263.188.413.487.413.862 0 .225-.075.45-.188.637-.112.188-.262.225-.524.337zm-.787-1.723h-.487v1.386h.374c.188 0 .338 0 .487-.037.15 0 .263-.038.338-.113a.34.34 0 00.225-.225.904.904 0 00.075-.337.755.755 0 00-.075-.337.645.645 0 00-.225-.225c-.075-.037-.188-.075-.3-.112h-.412zM169.423 44.555c-.038-.075-.075-.187-.15-.337-.075-.113-.113-.262-.188-.412l-.224-.45-.225-.45c-.075-.15-.113-.262-.188-.374-.075-.113-.112-.188-.15-.263a98.28 98.28 0 00-.112 1.35c-.037.486-.037.974-.075 1.46h-.487c0-.299.037-.636.037-.936 0-.337.038-.637.075-.937.038-.3.038-.6.075-.9.038-.299.038-.561.075-.824h.45c.112.15.187.338.3.563.112.224.224.412.337.674.112.225.225.45.3.675.112.224.187.45.262.637.075-.188.187-.413.262-.637.075-.225.225-.45.3-.675l.337-.675c.113-.224.225-.374.3-.562h.45c.112 1.162.225 2.399.262 3.635h-.487c0-.487-.038-.974-.075-1.461-.037-.487-.037-.937-.112-1.35-.038.076-.075.15-.15.263-.075.112-.113.225-.188.375l-.224.45-.225.45c-.075.15-.113.299-.188.411-.075.113-.112.225-.15.338h-.224v-.038z" fill="#555"/></svg>