<svg width="189" height="43" viewBox="0 0 189 43" fill="none" xmlns="http://www.w3.org/2000/svg">
<path d="M96.592 28.753C96.592 31.1491 97.5434 32.3472 99.4814 32.3472C101.278 32.3472 103.534 31.2901 106.176 29.1407C109.101 26.815 111.074 24.3837 112.167 21.8467C113.4 18.9573 113.999 16.4907 113.999 14.4822C113.999 12.4385 113.576 10.9233 112.766 9.90148C111.955 8.87962 110.828 8.35107 109.383 8.35107C109.066 8.35107 108.713 8.38631 108.361 8.42154C107.762 8.56249 107.304 8.63296 107.022 8.63296C106.74 8.63296 106.599 8.56249 106.599 8.42154C106.599 8.21012 106.846 7.9987 107.304 7.78728C107.762 7.57587 108.114 7.47016 108.361 7.47016C108.608 7.47016 108.784 7.47016 108.96 7.47016C109.136 7.47016 109.277 7.47016 109.489 7.47016C110.933 7.47016 112.237 8.03394 113.435 9.16151C114.633 10.2891 115.408 11.9452 115.761 14.1299C115.831 14.6584 115.866 15.187 115.866 15.7508C115.866 17.6183 115.444 19.7325 114.563 22.0933C113.329 25.1942 111.215 27.8369 108.22 30.0216C105.225 32.2062 102.476 33.2986 99.9395 33.2986C97.332 33.2986 95.7111 32.1005 95.112 29.6692C94.9359 29.0349 94.8654 28.1893 94.8654 27.0969C94.8654 26.0046 95.112 24.5951 95.6406 22.8685C94.3016 25.1237 92.5398 27.5902 90.3551 30.1978C89.1923 31.6072 87.959 32.77 86.7257 33.6862C85.422 34.6728 84.3297 35.1661 83.4135 35.1661C81.6164 35.1661 80.7355 34.0738 80.7355 31.9243C80.7355 29.3873 82.3916 24.2075 85.6686 16.4202C87.7124 11.4519 88.7695 7.71681 88.7695 5.25025C88.7695 3.62937 88.2762 2.53703 87.3248 1.90278C86.3734 1.30375 85.2106 0.986624 83.8716 0.986624C83.3078 0.986624 82.7088 1.0571 82.0745 1.16281C77.6347 2.07896 73.6882 4.47505 70.235 8.35107C68.5437 10.3243 67.3456 12.1919 66.7114 13.9889C66.0419 15.786 65.6895 17.125 65.5838 17.9707C65.4781 18.8516 65.4428 19.5563 65.4428 20.1201C65.4428 20.6839 65.5486 21.3181 65.76 22.0581C65.9714 22.7981 66.359 23.4676 66.8875 24.1018C67.8742 25.2294 69.2484 25.7932 70.975 25.7932C73.8996 25.7932 76.19 24.278 77.9166 21.2477C78.7975 19.6972 79.2204 18.2878 79.2204 17.0193C79.2204 14.9755 78.3042 13.9185 76.4719 13.9185C76.1548 13.9185 75.8024 13.9537 75.3443 14.0242C74.8863 14.0946 74.6748 14.0594 74.7101 13.8832C74.7453 13.707 75.0624 13.5308 75.7319 13.3194C76.4014 13.108 77.0357 13.0023 77.7052 13.0023C79.0089 13.0023 79.9603 13.4956 80.5593 14.5175C80.9469 15.1517 81.1231 15.8917 81.1231 16.7374C81.1231 17.5831 80.8765 18.5697 80.4184 19.6972C79.1499 22.6219 76.8243 24.8066 73.512 26.1808C72.6311 26.5684 71.8207 26.7446 71.0807 26.7446C68.6141 26.7446 66.6761 25.8637 65.1962 24.1018C64.1743 22.9038 63.5048 21.3534 63.2229 19.4154C63.1877 19.0278 63.1525 18.6402 63.1525 18.2526C63.1525 16.6317 63.5753 14.9051 64.3857 13.0375C65.1962 11.17 66.3238 9.4434 67.7332 7.82252C69.1427 6.20164 70.6579 4.86265 72.314 3.80555C73.9701 2.71322 75.7319 1.8323 77.5642 1.09233C79.467 0.352366 81.2288 0 82.885 0C84.5058 0 85.9858 0.246656 87.3248 0.739968C89.7209 1.79707 90.9541 3.80555 90.9541 6.80066C90.9541 9.26722 90.1085 12.4033 88.4171 16.2088C87.2543 18.7811 86.162 21.5648 85.1049 24.5247C83.5897 28.753 82.8497 31.5015 82.8497 32.77C82.8497 33.6862 83.1668 34.109 83.8011 34.109C84.1182 34.109 84.5058 33.9681 84.9639 33.6509C86.3029 32.8405 87.7828 31.3253 89.4037 29.1054C91.0246 26.8855 92.6807 24.278 94.4073 21.3181C96.1339 18.3583 97.3672 16.385 98.1072 15.3631C98.8471 14.3765 99.4462 13.848 99.9747 13.848C100.116 13.848 100.221 13.8832 100.362 13.9185C100.679 14.0946 100.856 14.447 100.856 14.9403C100.856 15.4336 100.785 15.8917 100.644 16.2793C100.503 16.6669 99.869 18.2878 98.7062 21.0715C97.5434 23.8552 96.9091 25.7227 96.7682 26.6036C96.6625 27.6255 96.592 28.295 96.592 28.753Z" fill="white"/>
<path d="M118.227 24.7009C117.875 25.5466 117.699 26.498 117.699 27.5551C117.699 28.2598 117.84 28.8236 118.157 29.2465C118.474 29.6693 118.932 29.8807 119.496 29.8807C121.786 29.8807 123.865 27.7313 125.697 23.4324C125.874 23.0448 126.085 22.8686 126.332 22.9039C126.437 22.9391 126.473 22.9744 126.473 23.0801C126.473 23.1858 126.191 23.8553 125.627 25.0533C125.063 26.2866 124.499 27.2732 123.9 28.0132C122.632 29.775 121.046 30.6559 119.143 30.6559C118.122 30.6559 117.276 30.3388 116.571 29.6693C115.866 28.9998 115.514 28.1189 115.514 26.9913C115.514 25.8638 115.796 24.6657 116.324 23.3972C116.853 22.1287 117.593 20.9659 118.544 19.8735C119.461 18.7812 120.553 17.9708 121.751 17.4774C122.315 17.2308 122.878 17.0898 123.407 17.0898C123.936 17.0898 124.429 17.2308 124.887 17.5479C125.31 17.9003 125.521 18.2879 125.521 18.7107C125.521 20.2259 124.605 21.6706 122.808 23.0448C122.244 23.4677 121.469 23.8553 120.482 24.2076C119.531 24.5248 118.756 24.7009 118.227 24.7009ZM124.57 18.6755C124.57 18.1822 124.358 17.9355 123.971 17.9355C123.266 17.9355 122.209 18.8164 120.764 20.543C119.919 21.6001 119.143 22.7629 118.509 24.0667C118.932 24.0667 119.566 23.9257 120.377 23.6086C121.187 23.2915 121.892 22.9039 122.491 22.4106C123.865 21.2478 124.57 19.9792 124.57 18.6755Z" fill="white"/>
<path d="M133.766 28.33C133.766 29.1405 134.084 29.5281 134.753 29.5281C135.916 29.5281 137.502 27.5548 139.475 23.6083C139.545 23.4674 139.616 23.2912 139.686 23.1502C139.757 23.0093 139.862 22.9036 140.003 22.8331C140.144 22.7979 140.25 22.7979 140.285 22.9388C140.321 23.0445 140.32 23.2207 140.215 23.4674C138.206 28.1538 136.163 30.4794 134.119 30.4794C133.449 30.4794 132.886 30.1623 132.498 29.5633C132.11 28.9643 131.899 28.3652 131.899 27.7662C131.899 27.1672 131.969 26.6387 132.075 26.1453C130.595 28.5767 129.327 29.9509 128.27 30.268C127.952 30.409 127.671 30.4442 127.389 30.4442C127.107 30.4442 126.825 30.409 126.543 30.3385C125.31 30.0214 124.711 29.0347 124.711 27.4139C124.711 26.3215 124.993 25.0882 125.556 23.7493C126.12 22.4103 126.931 21.1065 127.952 19.8732C128.974 18.64 130.208 17.8295 131.688 17.3714C132.216 17.1953 132.85 17.1248 133.555 17.1248C134.26 17.1248 135.07 17.3362 135.951 17.7943C137.643 14.5877 139.122 11.5926 140.321 8.87942C140.673 8.03374 141.025 7.50519 141.342 7.29377C141.695 7.04712 142.012 6.94141 142.294 6.94141C142.576 6.94141 142.752 6.94141 142.822 6.94141C142.893 6.94141 143.139 6.97664 143.527 7.04712C143.95 7.11759 144.267 7.11759 144.478 7.11759C143.915 7.64614 142.364 10.2184 139.898 14.7992C136.726 20.6837 134.824 24.5949 134.189 26.5329C133.907 27.2377 133.766 27.8367 133.766 28.33ZM135.634 18.4285C135.317 18.1114 134.859 17.9352 134.26 17.9352C133.661 17.9352 132.85 18.3581 131.793 19.239C130.102 20.6484 128.728 22.375 127.6 24.4188C126.86 25.7577 126.508 26.8853 126.508 27.7662C126.508 28.1538 126.578 28.5414 126.754 28.8586C126.931 29.1757 127.177 29.3519 127.53 29.3519C128.375 29.3519 129.432 28.471 130.701 26.7091C131.934 24.9825 133.59 22.1988 135.634 18.4285Z" fill="white"/>
<path d="M147.615 28.3301C147.615 29.1405 147.932 29.5281 148.601 29.5281C149.764 29.5281 151.35 27.5549 153.323 23.6084C153.393 23.4674 153.464 23.2913 153.534 23.1503C153.605 23.0094 153.71 22.9037 153.851 22.8332C153.992 22.7979 154.098 22.7979 154.133 22.9389C154.169 23.0446 154.169 23.2208 154.063 23.4674C152.054 28.1539 150.011 30.4795 147.967 30.4795C147.297 30.4795 146.734 30.1624 146.346 29.5634C145.958 28.9643 145.747 28.3653 145.747 27.7663C145.747 27.1673 145.818 26.6387 145.923 26.1454C144.479 28.5415 143.21 29.9157 142.153 30.2329C141.836 30.3738 141.554 30.409 141.272 30.409C140.99 30.409 140.708 30.3738 140.426 30.3033C139.193 29.9862 138.594 28.9996 138.594 27.3787C138.594 26.2864 138.876 25.0531 139.44 23.7141C140.003 22.3751 140.814 21.0714 141.836 19.8381C142.858 18.6048 144.091 17.7944 145.571 17.3363C146.099 17.1601 146.734 17.0896 147.438 17.0896C148.143 17.0896 148.954 17.301 149.834 17.7591C151.526 14.5526 153.006 11.5575 154.204 8.84426C154.556 7.99858 154.909 7.47004 155.226 7.25862C155.578 7.01196 155.895 6.90625 156.177 6.90625C156.459 6.90625 156.635 6.90625 156.706 6.90625C156.776 6.90625 157.023 6.94149 157.41 7.01196C157.833 7.08243 158.15 7.08243 158.362 7.08243C157.798 7.61098 156.248 10.1833 153.781 14.764C150.61 20.6485 148.707 24.5598 148.073 26.4978C147.72 27.2378 147.615 27.8368 147.615 28.3301ZM149.447 18.4286C149.13 18.1115 148.672 17.9353 148.073 17.9353C147.474 17.9353 146.663 18.3581 145.606 19.2391C143.915 20.6485 142.54 22.3751 141.413 24.4188C140.673 25.7578 140.321 26.8854 140.321 27.7663C140.321 28.1539 140.391 28.5415 140.567 28.8586C140.743 29.1758 140.99 29.3519 141.342 29.3519C142.188 29.3519 143.245 28.471 144.514 26.7092C145.782 24.9826 147.403 22.1989 149.447 18.4286Z" fill="white"/>
<path d="M154.944 29.6693C155.437 29.6693 155.93 29.4227 156.459 28.9646C157.375 28.0485 158.573 26.1457 159.983 23.2915C160.159 22.9039 160.335 22.7982 160.511 22.9392C160.546 22.9744 160.582 23.0801 160.582 23.1858C160.582 23.2915 160.476 23.5734 160.265 24.0315C160.053 24.4543 159.877 24.8772 159.736 25.2295C159.56 25.5819 159.243 26.1457 158.785 26.9561C158.327 27.7313 157.904 28.3656 157.516 28.7884C156.494 29.9512 155.508 30.5503 154.591 30.5503C153.675 30.5503 153.006 30.2684 152.618 29.7046C152.231 29.1408 152.019 28.5418 152.019 27.8723C152.019 27.2028 152.195 26.4628 152.512 25.6524L154.909 19.5212C154.944 19.3803 154.979 19.1688 154.979 18.9222C154.979 18.6755 154.838 18.3584 154.521 17.9356L156.6 17.9003C157.164 17.9003 157.516 18.006 157.622 18.2175C157.727 18.4289 157.657 18.746 157.41 19.2041L154.415 26.2514C153.992 27.1676 153.781 27.978 153.781 28.6123C153.781 29.317 154.169 29.6693 154.944 29.6693ZM158.644 15.8566C158.291 16.1737 157.904 16.3147 157.481 16.3147C157.058 16.3147 156.706 16.1737 156.459 15.8566C156.212 15.5395 156.107 15.1871 156.142 14.7643C156.212 14.3414 156.424 13.9891 156.776 13.6719C157.128 13.3548 157.516 13.2139 157.939 13.2139C158.362 13.2139 158.714 13.3548 158.961 13.6719C159.207 13.9891 159.313 14.3414 159.243 14.7643C159.207 15.1871 158.996 15.5747 158.644 15.8566Z" fill="white"/>
<path d="M171.399 18.1466C168.298 23.5731 166.783 27.0967 166.783 28.7529C166.783 29.4223 167.03 29.7395 167.488 29.7395C168.757 29.7395 170.483 27.5548 172.633 23.2207C172.773 22.8683 172.95 22.7274 173.091 22.7979C173.232 22.8683 173.302 22.9741 173.302 23.115C173.302 23.2559 173.267 23.3969 173.161 23.5731C171.822 26.2511 170.695 28.1186 169.778 29.1405C168.862 30.1623 167.946 30.6556 167.03 30.6556C166.114 30.6556 165.409 30.3033 164.951 29.5985C164.704 29.2814 164.563 28.8233 164.563 28.2595C164.563 27.6958 164.704 27.0263 164.951 26.2158C165.198 25.4054 165.902 24.1016 167.03 22.3046C167.312 21.8465 167.453 21.4941 167.453 21.2475C167.453 21.0008 167.241 20.8599 166.818 20.8599C166.396 20.8599 165.585 21.4236 164.387 22.5512C162.59 24.2073 160.828 26.7091 159.137 30.0214C158.996 30.268 158.82 30.4442 158.644 30.4794C158.467 30.5147 158.08 30.5852 157.516 30.6204C156.952 30.6556 156.6 30.6909 156.424 30.7966C156.811 29.9861 157.622 28.3652 158.785 25.8635C160.899 21.4589 162.273 18.9571 162.942 18.3228C163.26 18.0057 163.647 17.8647 164.176 17.8647C164.281 17.8647 164.528 17.9 164.951 17.9705C165.374 18.0409 165.656 18.0762 165.867 18.0057C164.951 18.499 163.436 20.8599 161.322 25.0882C162.484 23.6435 163.577 22.4807 164.528 21.5998C165.48 20.7189 166.642 19.9437 168.017 19.2037C169.356 18.4638 170.377 18.0762 170.976 18.0762C171.117 18.0762 171.258 18.1114 171.399 18.1466Z" fill="white"/>
<path d="M170.025 42.3896C167.664 42.3896 166.501 41.4382 166.501 39.5002C166.501 37.8793 167.594 36.4346 169.778 35.1661C171.646 34.0738 174.007 33.0872 176.896 32.1005C178.235 31.6777 179.187 31.3253 179.786 31.0787C180.455 29.1759 180.772 27.097 180.772 24.8418C180.772 24.3837 180.737 24.0666 180.702 23.82C179.997 25.2647 179.046 26.7094 177.812 28.2245C176.368 30.0216 174.923 30.7263 173.478 30.3387C172.174 29.7749 171.505 28.7178 171.505 27.097C171.505 24.9475 172.597 22.5514 174.747 19.9792C175.91 18.5697 177.319 17.6888 178.905 17.3012C179.327 17.1602 179.75 17.125 180.173 17.125C181.301 17.125 182.393 17.5126 183.485 18.2526C183.873 18.5697 184.084 18.8516 184.084 19.0982C184.084 19.3097 184.014 19.5563 183.873 19.7677C183.732 19.9792 183.556 20.0144 183.415 19.8382C183.239 19.662 183.133 19.5211 183.098 19.3801C182.781 18.464 182.252 17.9707 181.512 17.9707C180.173 17.9707 178.693 18.8868 177.037 20.7544C176.121 21.8115 175.31 22.939 174.641 24.1371C173.795 25.6523 173.408 26.8151 173.408 27.6255C173.408 28.4359 173.654 28.9997 174.148 29.2464C174.324 29.3169 174.5 29.3521 174.676 29.3521C175.24 29.3521 175.98 28.9645 176.826 28.1541C177.707 27.3788 178.482 26.357 179.222 25.1589C179.962 23.9257 180.42 23.0095 180.631 22.3048C180.843 21.6353 181.089 21.2124 181.371 21.0363C181.653 20.8601 181.97 20.7544 182.323 20.7191C182.675 20.6839 182.922 20.6487 183.027 20.5429C183.239 21.6705 183.344 23.0095 183.344 24.5247C183.344 26.0399 183.098 27.7664 182.569 29.7045C183.732 28.8588 184.542 28.1188 185.036 27.4846C185.529 26.8151 185.917 26.2513 186.199 25.7227C186.48 25.1942 186.727 24.6656 186.974 24.1723C187.185 23.6438 187.361 23.3266 187.432 23.1857C187.502 23.0447 187.643 22.939 187.819 22.9038C187.996 22.8686 188.066 22.939 188.066 23.1505C188.066 23.2914 188.031 23.4323 187.96 23.6085C186.868 25.8989 185.917 27.555 185.177 28.5769C184.437 29.5988 183.415 30.4092 182.146 31.0082C181.547 32.6996 180.666 34.4262 179.539 36.0823C178.411 37.7736 176.967 39.2536 175.24 40.5221C173.478 41.7554 171.752 42.3896 170.025 42.3896ZM167.277 40.205C167.277 41.1563 167.876 41.6497 169.109 41.6497C169.849 41.6497 170.659 41.4382 171.575 41.0154C172.492 40.5926 173.267 40.1345 173.866 39.7116C174.888 38.866 176.015 37.6679 177.249 36.0118C178.165 34.7081 178.905 33.4395 179.398 32.2063L178.094 32.6643C174.183 34.0033 171.399 35.2366 169.814 36.2937C168.651 37.0689 167.84 38.0555 167.488 39.2536C167.347 39.6059 167.277 39.9583 167.277 40.205Z" fill="white"/>
<path d="M45.4001 7.44716C46.1001 7.34716 46.9 7.24716 47.5 7.24716C48.7 5.64716 49.1 4.34716 48.7001 3.44716C48.0001 1.64716 43.5 1.74716 37.3 3.24716C38.1 3.54716 39 3.94716 39.8 4.34716C41.8 5.34716 43.7001 6.34716 45.4001 7.44716Z" fill="white"/>
<path d="M2.29997 23.7474C2.69997 24.5474 3.89997 25.1474 5.69997 25.3474C5.79997 25.3474 5.79997 25.3474 5.89997 25.3474C7.49997 23.8474 9.79997 22.0474 12.5 20.3474C11.2 18.7474 10.2 17.1474 9.39997 15.5474C4.29997 18.9474 1.49997 22.0474 2.29997 23.7474Z" fill="white"/>
<path d="M29.5 17.7471C30.6 17.7471 31.6 18.1471 32.4 18.7471C38 15.8471 42.6 12.5471 45.5 9.64714C43.5 8.34714 41.4 7.14713 39.1 6.04713C26.3 0.0471349 13.5 0.547135 10.5 7.04713C8.30004 11.7471 11.8 18.3471 18.8 23.9471C20.7 23.4471 22.7 22.8471 24.8 22.0471C24.9 20.9471 25.4 19.9471 26.2 19.1471C27 18.2471 28.2 17.7471 29.5 17.7471Z" fill="#20CDC1"/>
<path d="M46.8 10.5474C43.6 13.5474 38.9 16.7474 33.3 19.6474C33.9 20.4474 34.3 21.4474 34.3 22.5474C34.3 23.8474 33.8 25.0474 32.9 25.9474C32 26.8474 30.8 27.3474 29.5 27.3474C28.2 27.3474 27 26.8474 26.1 25.9474C25.4 25.2474 25 24.3474 24.8 23.4474C23.2 24.0474 21.7 24.5474 20.1 24.9474C22.4 26.6474 25.1 28.2474 28 29.5474C40.8 35.5474 53.6 35.0474 56.6 28.5474C59 23.5474 54.8 16.3474 46.8 10.5474Z" fill="#20CDC1"/>
<path d="M8.79999 6.24707L5.59999 12.9471C3.89999 16.6471 4.89999 21.1471 8.09999 25.5471C10.4 25.5471 13.4 25.2471 16.6 24.4471C9.69999 18.4471 6.29999 11.4471 8.79999 6.24707Z" fill="white"/>
<path d="M58.3 29.3474C54.9 36.8474 41 37.6474 27.3 31.2474C23.8 29.6474 20.7 27.6474 18 25.5474C14.8 26.3474 11.9 26.8474 9.40002 27.0474C12.8 31.1474 17.9 34.9474 24.2 37.9474C38.1 44.4474 51.8 43.5474 55.3 36.0474L58.3 29.3474Z" fill="white"/>
<path d="M39.7 18.1473C40.9 18.7473 41.8 19.4473 42.4 20.1473C43 20.9473 43.1 21.6473 42.9 22.2473C42.6 22.8473 42 23.2473 41.1 23.2473C40.2 23.2473 38.8 23.0473 37 22.4473L36.9 24.6473C39.4 25.5473 41.4 25.9473 42.9 25.9473C44.3 25.9473 45.5 25.4473 46.4 24.5473L49.8 26.1473L50.5 24.6473L47 23.0473C47 21.8473 46.3 20.6473 45.2 19.3473C44 18.0473 42.5 17.0473 40.6 16.1473C40.4 16.0473 40.2 16.0473 40.1 15.9473C39.3 16.4473 38.5 16.9473 37.6 17.4473C38.2 17.5473 38.9 17.7473 39.7 18.1473Z" fill="white"/>
<path d="M32.4 18.6474C32.5 18.6474 32.6 18.5474 32.7 18.5474C34.8 17.4474 36.7 16.3474 38.4 15.2474C37.3 14.8474 36.2 14.6474 35.2 14.6474C34.6 14.6474 33.9 14.7474 33.2 14.8474C32.5 15.0474 31.6 15.3474 30.7 15.6474C29.6 16.1474 28.8 16.3474 28.1 16.3474C27.4 16.3474 26.7 16.1474 25.9 15.7474C25.1 15.3474 24.4 14.8474 24 14.2474C23.6 13.6474 23.5 13.0474 23.7 12.5474C24.1 11.7474 25.3 11.5474 27.3 11.8474L26.2 9.34736C24.6 9.04736 23.4 8.94736 22.6 9.14736C21.8 9.24736 21 9.54736 20.5 10.1474L17.2 8.54736L16.5 10.1474L19.8 11.7474C19.8 12.3474 19.9 12.8474 20.2 13.4474C20.4 13.9474 20.8 14.5474 21.3 15.0474C21.8 15.5474 22.3 16.0474 22.9 16.4474C23.5 16.9474 24.2 17.3474 25 17.7474C25.6 18.0474 26.2 18.2474 26.8 18.4474C27.6 17.8474 28.6 17.5474 29.6 17.5474C30.6 17.7474 31.6 18.0474 32.4 18.6474Z" fill="white"/>
<path d="M29.5 17.5474C26.8 17.5474 24.6 19.7474 24.6 22.4474C24.6 25.1474 26.8 27.3474 29.5 27.3474C32.2 27.3474 34.4 25.1474 34.4 22.4474C34.4 19.8474 32.2 17.5474 29.5 17.5474ZM33.8 20.7474L32.2 19.8474L31.4 18.1474C32.4 18.6474 33.4 19.6474 33.8 20.7474ZM33.8 20.9474L32.1 22.2474V20.1474L33.8 20.9474ZM33.8 24.0474L32.1 24.8474V22.7474L33.8 24.0474ZM27.1 22.5474L29.5 20.1474L31.9 22.5474L29.5 24.9474L27.1 22.5474ZM29.2 24.9474H27V22.8474L29.2 24.9474ZM27 22.2474V20.0474H29.2L27 22.2474ZM31.9 22.8474V25.0474H29.7L31.9 22.8474ZM29.8 20.0474H32V22.2474L29.8 20.0474ZM31.8 19.8474H29.7L31 18.1474L31.8 19.8474ZM29.5 17.8474C30 17.8474 30.5 17.9474 30.9 18.0474L29.5 19.8474L28.1 18.0474C28.6 17.9474 29 17.8474 29.5 17.8474ZM29.2 19.8474H27.1L27.9 18.1474L29.2 19.8474ZM27.7 18.1474L26.9 19.8474L25.2 20.6474C25.6 19.6474 26.6 18.6474 27.7 18.1474ZM26.8 20.1474V22.2474L25.1 20.9474L26.8 20.1474ZM24.8 22.5474C24.8 22.0474 24.9 21.5474 25 21.1474L26.8 22.5474L25 23.9474C24.9 23.4474 24.8 23.0474 24.8 22.5474ZM26.8 22.7474V24.8474L25.1 24.0474L26.8 22.7474ZM25.2 24.3474L26.9 25.1474L27.7 26.8474C26.6 26.4474 25.6 25.4474 25.2 24.3474ZM27.2 25.2474H29.3L28 26.8474L27.2 25.2474ZM29.5 27.2474C29 27.2474 28.5 27.1474 28.1 27.0474L29.5 25.2474L30.9 27.0474C30.5 27.1474 30 27.2474 29.5 27.2474ZM29.8 25.2474H31.9L31.1 26.8474L29.8 25.2474ZM31.3 26.8474L32.1 25.1474L33.8 24.3474C33.4 25.4474 32.4 26.4474 31.3 26.8474ZM32.2 22.5474L34 21.1474C34.1 21.5474 34.2 22.0474 34.2 22.5474C34.2 23.0474 34.1 23.5474 34 23.9474L32.2 22.5474Z" fill="#20CDC1"/>
<path d="M24.8 23.4473C12.6 27.8473 1.8 28.2473 0 25.1473C1.2 27.7473 0.8 27.0473 2.2 29.8473C4.6 33.7473 14.6 31.4473 26.8 26.4473C26.6 26.2473 26.4 26.1473 26.2 25.9473C25.4 25.2473 25 24.3473 24.8 23.4473Z" fill="#20CDC1"/>
<path d="M53.5 7.44717C53 6.04717 52.5 4.44717 51.1 2.34717C51.2 2.44717 51.2001 2.54717 51.2001 2.54717C52.7001 5.84717 45.1 13.6472 33.3 19.7472C33.9 20.5472 34.3 21.5472 34.3 22.5472C34.3 22.7472 34.3001 22.9472 34.2001 23.1472C46.3001 17.5472 54.9 11.7472 53.5 7.44717Z" fill="#20CDC1"/>
<path d="M78.7271 41.9321V42.355H76.6833V38.937H77.1767V41.9321H78.7271Z" fill="white"/>
<path d="M79.8546 40.6628C79.8546 40.3809 79.8898 40.099 79.9956 39.8876C80.066 39.6762 80.207 39.4647 80.3479 39.3238C80.4889 39.1829 80.6651 39.0771 80.8765 38.9714C81.0879 38.901 81.2993 38.8657 81.5107 38.8657C81.7222 38.8657 81.9336 38.901 82.145 38.9714C82.3564 39.0419 82.4974 39.1476 82.6735 39.3238C82.8497 39.5 82.9554 39.6762 83.0259 39.8876C83.0964 40.099 83.1669 40.3809 83.1669 40.6628C83.1669 40.9447 83.1316 41.2266 83.0259 41.438C82.9202 41.6494 82.8145 41.8608 82.6735 42.0018C82.5326 42.1427 82.3564 42.2484 82.145 42.3541C81.9336 42.4246 81.7574 42.4599 81.5107 42.4599C81.2993 42.4599 81.0879 42.4246 80.8765 42.3541C80.6651 42.2837 80.4889 42.178 80.3479 42.0018C80.207 41.8608 80.066 41.6494 79.9956 41.438C79.9251 41.1913 79.8546 40.9447 79.8546 40.6628ZM80.3832 40.6628C80.3832 40.8742 80.4184 41.0504 80.4536 41.2266C80.4889 41.4028 80.5946 41.5437 80.6651 41.6494C80.7355 41.7551 80.8765 41.8608 81.0174 41.9313C81.1584 42.0018 81.2993 42.037 81.4755 42.037C81.6517 42.037 81.7926 42.0018 81.9336 41.9313C82.0745 41.8608 82.1802 41.7904 82.2859 41.6494C82.3916 41.5437 82.4621 41.4028 82.4974 41.2266C82.5326 41.0504 82.5678 40.8742 82.5678 40.6628C82.5678 40.4514 82.5326 40.2752 82.4974 40.099C82.4621 39.9228 82.3564 39.7819 82.2859 39.6762C82.1802 39.5705 82.0745 39.4647 81.9336 39.3943C81.7926 39.3238 81.6517 39.2886 81.4755 39.2886C81.2993 39.2886 81.1584 39.3238 81.0174 39.3943C80.8765 39.4647 80.7708 39.5352 80.6651 39.6762C80.5593 39.7819 80.4889 39.9228 80.4536 40.099C80.4184 40.2752 80.3832 40.4514 80.3832 40.6628Z" fill="white"/>
<path d="M87.0076 42.3543C86.9371 42.2134 86.9019 42.0724 86.8667 41.9315C86.8314 41.7905 86.761 41.6496 86.7257 41.5086H85.1753L84.8582 42.3895H84.3649C84.5058 42.0372 84.6115 41.6848 84.7172 41.4029C84.8229 41.0858 84.9287 40.8039 85.0696 40.522C85.2105 40.2401 85.281 39.9935 85.3867 39.7468C85.4924 39.5001 85.5982 39.2535 85.7391 39.0068H86.1619C86.2676 39.2535 86.4086 39.5001 86.5143 39.7468C86.62 39.9935 86.7257 40.2754 86.8314 40.522C86.9371 40.7687 87.0428 41.0858 87.1838 41.4029C87.2895 41.7201 87.4305 42.0372 87.5362 42.3895H87.0076V42.3543ZM86.5848 41.0858C86.4791 40.8039 86.3734 40.522 86.2676 40.2401C86.1619 39.9582 86.0562 39.7116 85.9505 39.4649C85.8448 39.7116 85.7391 39.9582 85.6334 40.2401C85.5277 40.522 85.422 40.7687 85.3163 41.0858H86.5848Z" fill="white"/>
<path d="M91.3417 42.3541C91.2712 42.2484 91.2007 42.1074 91.095 41.9312C90.9893 41.7903 90.8836 41.6141 90.7779 41.4731C90.6722 41.297 90.5664 41.156 90.4255 40.9798C90.3198 40.8037 90.1788 40.6627 90.0731 40.4865C89.9674 40.3456 89.8617 40.1694 89.7208 40.0284C89.6151 39.8875 89.5093 39.7818 89.4036 39.6761V42.3541H88.9456V38.9361H89.3332C89.4741 39.1123 89.6503 39.2885 89.8265 39.4999C90.0027 39.7113 90.1788 39.958 90.355 40.1694C90.5312 40.4161 90.7074 40.6275 90.8483 40.8389C90.9893 41.0503 91.1302 41.2617 91.2359 41.4379V38.9009H91.694V42.3188H91.3417V42.3541Z" fill="white"/>
<path d="M97.1558 42.4247C96.9092 42.4247 96.6978 42.3895 96.4863 42.319C96.2749 42.2485 96.134 42.1076 95.993 41.9666C95.8521 41.8257 95.7464 41.6143 95.6759 41.4028C95.6054 41.1914 95.5702 40.9095 95.5702 40.6276C95.5702 40.3457 95.6054 40.0991 95.7111 39.8524C95.7816 39.641 95.9226 39.4296 96.0635 39.2886C96.2044 39.1477 96.3806 39.0068 96.592 38.9363C96.8035 38.8658 97.0149 38.8306 97.2263 38.8306C97.3672 38.8306 97.5082 38.8306 97.6139 38.8658C97.7196 38.901 97.8253 38.901 97.8958 38.9363C97.9663 38.9715 98.0367 38.9715 98.1072 39.0067C98.1425 39.042 98.2129 39.042 98.2129 39.0772L98.072 39.4648C98.0367 39.4296 98.0015 39.4296 97.931 39.3944C97.8606 39.3591 97.8253 39.3591 97.7549 39.3239C97.6844 39.2886 97.6139 39.2886 97.5082 39.2534C97.4377 39.2534 97.332 39.2182 97.2615 39.2182C97.0854 39.2182 96.9092 39.2534 96.7682 39.3239C96.6273 39.3944 96.4863 39.4648 96.4159 39.6058C96.3102 39.7115 96.2397 39.8524 96.1692 40.0286C96.0987 40.2048 96.0987 40.381 96.0987 40.5924C96.0987 40.8038 96.134 40.98 96.1692 41.1562C96.2044 41.3324 96.2749 41.4733 96.3806 41.579C96.4863 41.6847 96.592 41.7904 96.733 41.8609C96.8739 41.9314 97.0501 41.9666 97.2263 41.9666C97.4377 41.9666 97.6139 41.9314 97.7901 41.8962C97.931 41.8609 98.0367 41.8257 98.1072 41.7552L98.2129 42.1428C98.1777 42.1428 98.1425 42.178 98.1072 42.2133C98.0367 42.2485 97.9663 42.2485 97.8958 42.2838C97.7901 42.319 97.7196 42.319 97.5787 42.3542C97.4377 42.3895 97.2968 42.4247 97.1558 42.4247Z" fill="white"/>
<path d="M101.032 42.4245C100.82 42.4245 100.609 42.3893 100.433 42.3188C100.257 42.2484 100.151 42.1426 100.045 42.0369C99.9394 41.9312 99.869 41.7903 99.7985 41.6141C99.728 41.4379 99.728 41.2617 99.728 41.0855V38.9361H100.221V41.0151C100.221 41.3674 100.292 41.6141 100.433 41.755C100.574 41.896 100.785 42.0017 101.032 42.0017C101.137 42.0017 101.278 41.9665 101.349 41.9312C101.455 41.896 101.525 41.8255 101.596 41.755C101.666 41.6846 101.737 41.5789 101.772 41.4379C101.807 41.297 101.842 41.156 101.842 40.9798V38.9009H102.336V41.0503C102.336 41.2265 102.3 41.4027 102.265 41.5789C102.23 41.755 102.124 41.896 102.018 42.0017C101.913 42.1074 101.772 42.2131 101.631 42.2836C101.49 42.3541 101.243 42.4245 101.032 42.4245Z" fill="white"/>
<path d="M105.789 40.9445C105.824 41.015 105.894 41.0855 106 41.1912C106.071 41.2969 106.176 41.4026 106.247 41.5435C106.317 41.6845 106.423 41.8254 106.493 41.9664C106.564 42.1073 106.634 42.2483 106.705 42.3892H106.176C106.106 42.2483 106.035 42.1426 105.965 42.0016C105.894 41.8607 105.824 41.755 105.718 41.6493C105.613 41.5435 105.577 41.4378 105.472 41.3321C105.366 41.2264 105.331 41.1559 105.26 41.0502C105.225 41.0502 105.19 41.0502 105.119 41.0502C105.049 41.0502 105.014 41.0502 104.978 41.0502H104.555V42.3892H104.062V39.0065C104.203 38.9713 104.344 38.936 104.52 38.936C104.696 38.936 104.837 38.936 104.978 38.936C105.472 38.936 105.824 39.0417 106.071 39.2179C106.317 39.3941 106.458 39.676 106.458 40.0284C106.458 40.2398 106.388 40.4512 106.282 40.6274C106.176 40.8036 106.035 40.8388 105.789 40.9445ZM105.084 39.3236C104.873 39.3236 104.732 39.3236 104.626 39.3236V40.6274H104.978C105.154 40.6274 105.295 40.6274 105.436 40.5922C105.577 40.5922 105.683 40.5569 105.753 40.4864C105.859 40.4512 105.93 40.3807 105.965 40.275C106 40.2046 106.035 40.0636 106.035 39.9579C106.035 39.817 106 39.7112 105.965 39.6408C105.93 39.5703 105.859 39.4998 105.753 39.4293C105.683 39.3941 105.577 39.3589 105.472 39.3236C105.331 39.3236 105.19 39.3236 105.084 39.3236Z" fill="white"/>
<path d="M110.651 42.3543C110.581 42.2134 110.546 42.0724 110.51 41.9315C110.475 41.7905 110.405 41.6496 110.37 41.5086H108.819L108.502 42.3895H108.009C108.15 42.0372 108.255 41.6848 108.361 41.4029C108.467 41.0858 108.572 40.8039 108.713 40.522C108.854 40.2401 108.925 39.9935 109.031 39.7468C109.136 39.5001 109.242 39.2535 109.383 39.0068H109.806C109.911 39.2535 110.052 39.5001 110.158 39.7468C110.264 39.9935 110.37 40.2754 110.475 40.522C110.581 40.7687 110.687 41.0858 110.828 41.4029C110.933 41.7201 111.074 42.0372 111.18 42.3895H110.651V42.3543ZM110.193 41.0858C110.088 40.8039 109.982 40.522 109.876 40.2401C109.77 39.9582 109.665 39.7116 109.559 39.4649C109.453 39.7116 109.348 39.9582 109.242 40.2401C109.136 40.522 109.031 40.7687 108.925 41.0858H110.193Z" fill="white"/>
<path d="M114.563 38.936V39.3589H113.47V42.354H112.977V39.3589H111.885V38.936H114.563Z" fill="white"/>
<path d="M116.078 38.936H116.571V42.354H116.078V38.936Z" fill="white"/>
<path d="M118.227 40.6628C118.227 40.3809 118.263 40.099 118.368 39.8876C118.439 39.6762 118.58 39.4647 118.721 39.3238C118.862 39.1829 119.038 39.0771 119.249 38.9714C119.461 38.901 119.672 38.8657 119.883 38.8657C120.095 38.8657 120.306 38.901 120.518 38.9714C120.729 39.0419 120.87 39.1476 121.046 39.3238C121.222 39.5 121.328 39.6762 121.399 39.8876C121.469 40.099 121.54 40.3809 121.54 40.6628C121.54 40.9447 121.504 41.2266 121.399 41.438C121.293 41.6494 121.187 41.8608 121.046 42.0018C120.905 42.1427 120.729 42.2484 120.518 42.3541C120.306 42.4246 120.13 42.4599 119.883 42.4599C119.672 42.4599 119.461 42.4246 119.249 42.3541C119.038 42.2837 118.862 42.178 118.721 42.0018C118.58 41.8608 118.439 41.6494 118.368 41.438C118.298 41.1913 118.227 40.9447 118.227 40.6628ZM118.756 40.6628C118.756 40.8742 118.791 41.0504 118.826 41.2266C118.862 41.4028 118.967 41.5437 119.038 41.6494C119.108 41.7551 119.249 41.8608 119.39 41.9313C119.531 42.0018 119.672 42.037 119.848 42.037C120.024 42.037 120.165 42.0018 120.306 41.9313C120.447 41.8608 120.553 41.7904 120.659 41.6494C120.764 41.5437 120.835 41.4028 120.87 41.2266C120.905 41.0504 120.941 40.8742 120.941 40.6628C120.941 40.4514 120.905 40.2752 120.87 40.099C120.835 39.9228 120.729 39.7819 120.659 39.6762C120.553 39.5705 120.447 39.4647 120.306 39.3943C120.165 39.3238 120.024 39.2886 119.848 39.2886C119.672 39.2886 119.531 39.3238 119.39 39.3943C119.249 39.4647 119.143 39.5352 119.038 39.6762C118.932 39.7819 118.862 39.9228 118.826 40.099C118.791 40.2752 118.756 40.4514 118.756 40.6628Z" fill="white"/>
<path d="M125.556 42.3541C125.486 42.2484 125.416 42.1074 125.31 41.9312C125.204 41.7903 125.098 41.6141 124.993 41.4731C124.887 41.297 124.781 41.156 124.64 40.9798C124.535 40.8037 124.394 40.6627 124.288 40.4865C124.182 40.3456 124.077 40.1694 123.936 40.0284C123.83 39.8875 123.724 39.7818 123.618 39.6761V42.3541H123.16V38.9361H123.548C123.689 39.1123 123.865 39.2885 124.041 39.4999C124.217 39.7113 124.394 39.958 124.57 40.1694C124.746 40.4161 124.922 40.6275 125.063 40.8389C125.204 41.0503 125.345 41.2617 125.451 41.4379V38.9009H125.909V42.3188H125.556V42.3541Z" fill="white"/>
<path d="M130.807 38.9009C131.3 38.9009 131.652 39.0066 131.899 39.1828C132.146 39.359 132.287 39.6408 132.287 39.9932C132.287 40.2046 132.251 40.3456 132.181 40.4865C132.11 40.6275 132.005 40.7332 131.864 40.8389C131.723 40.9094 131.582 40.9798 131.37 41.0151C131.194 41.0503 130.948 41.0855 130.736 41.0855H130.384V42.3541H129.891V38.9714C130.031 38.9361 130.172 38.9009 130.349 38.9009C130.525 38.9009 130.666 38.9009 130.807 38.9009ZM130.842 39.3237C130.63 39.3237 130.49 39.3237 130.384 39.3237V40.6627H130.736C130.912 40.6627 131.053 40.6627 131.194 40.6275C131.335 40.5922 131.441 40.557 131.511 40.5218C131.582 40.4865 131.688 40.4161 131.723 40.3103C131.758 40.2046 131.793 40.0989 131.793 39.958C131.793 39.817 131.758 39.7113 131.723 39.6408C131.688 39.5704 131.617 39.4999 131.511 39.4294C131.406 39.359 131.335 39.359 131.194 39.3237C131.124 39.3237 130.983 39.3237 130.842 39.3237Z" fill="white"/>
<path d="M135.951 41.9311V42.354H133.907V38.936H134.401V41.9311H135.951Z" fill="white"/>
<path d="M139.862 42.3543C139.792 42.2134 139.757 42.0724 139.722 41.9315C139.686 41.7905 139.616 41.6496 139.581 41.5086H138.03L137.713 42.3895H137.22C137.361 42.0372 137.466 41.6848 137.572 41.4029C137.678 41.0858 137.784 40.8039 137.924 40.522C138.065 40.2401 138.136 39.9935 138.242 39.7468C138.347 39.5001 138.453 39.2535 138.594 39.0068H139.017C139.123 39.2535 139.263 39.5001 139.369 39.7468C139.475 39.9935 139.581 40.2754 139.686 40.522C139.792 40.7687 139.898 41.0858 140.039 41.4029C140.144 41.7201 140.285 42.0372 140.391 42.3895H139.862V42.3543ZM139.404 41.0858C139.299 40.8039 139.193 40.522 139.087 40.2401C138.982 39.9582 138.876 39.7116 138.77 39.4649C138.664 39.7116 138.559 39.9582 138.453 40.2401C138.347 40.522 138.242 40.7687 138.136 41.0858H139.404Z" fill="white"/>
<path d="M143.809 38.936V39.3589H142.717V42.354H142.223V39.3589H141.131V38.936H143.809Z" fill="white"/>
<path d="M145.289 42.354V38.936H147.368V39.3589H145.782V40.3807H147.192V40.7683H145.782V42.354H145.289Z" fill="white"/>
<path d="M148.742 40.6628C148.742 40.3809 148.777 40.099 148.883 39.8876C148.954 39.6762 149.095 39.4647 149.235 39.3238C149.376 39.1829 149.553 39.0771 149.764 38.9714C149.975 38.901 150.187 38.8657 150.398 38.8657C150.61 38.8657 150.821 38.901 151.033 38.9714C151.244 39.0419 151.385 39.1476 151.561 39.3238C151.737 39.5 151.843 39.6762 151.913 39.8876C151.984 40.099 152.054 40.3809 152.054 40.6628C152.054 40.9447 152.019 41.2266 151.913 41.438C151.808 41.6494 151.702 41.8608 151.561 42.0018C151.42 42.1427 151.244 42.2484 151.033 42.3541C150.821 42.4246 150.645 42.4599 150.398 42.4599C150.187 42.4599 149.975 42.4246 149.764 42.3541C149.553 42.2837 149.376 42.178 149.235 42.0018C149.095 41.8608 148.954 41.6494 148.883 41.438C148.777 41.1913 148.742 40.9447 148.742 40.6628ZM149.235 40.6628C149.235 40.8742 149.271 41.0504 149.306 41.2266C149.341 41.4028 149.447 41.5437 149.517 41.6494C149.588 41.7551 149.729 41.8608 149.87 41.9313C150.011 42.0018 150.152 42.037 150.328 42.037C150.504 42.037 150.645 42.0018 150.786 41.9313C150.927 41.8608 151.033 41.7904 151.138 41.6494C151.244 41.5437 151.314 41.4028 151.35 41.2266C151.385 41.0504 151.42 40.8742 151.42 40.6628C151.42 40.4514 151.385 40.2752 151.35 40.099C151.314 39.9228 151.209 39.7819 151.138 39.6762C151.033 39.5705 150.927 39.4647 150.786 39.3943C150.645 39.3238 150.504 39.2886 150.328 39.2886C150.152 39.2886 150.011 39.3238 149.87 39.3943C149.729 39.4647 149.623 39.5352 149.517 39.6762C149.412 39.7819 149.341 39.9228 149.306 40.099C149.271 40.2752 149.235 40.4514 149.235 40.6628Z" fill="white"/>
<path d="M155.367 40.9445C155.402 41.015 155.472 41.0855 155.578 41.1912C155.648 41.2969 155.754 41.4026 155.825 41.5435C155.895 41.6845 156.001 41.8254 156.071 41.9664C156.142 42.1073 156.212 42.2483 156.283 42.3892H155.754C155.684 42.2483 155.613 42.1426 155.543 42.0016C155.472 41.8607 155.402 41.755 155.296 41.6493C155.19 41.5435 155.155 41.4378 155.049 41.3321C154.944 41.2264 154.909 41.1559 154.838 41.0502C154.803 41.0502 154.768 41.0502 154.697 41.0502C154.627 41.0502 154.591 41.0502 154.556 41.0502H154.133V42.3892H153.64V39.0065C153.781 38.9713 153.922 38.936 154.098 38.936C154.274 38.936 154.415 38.936 154.556 38.936C155.049 38.936 155.402 39.0417 155.649 39.2179C155.895 39.3941 156.036 39.676 156.036 40.0284C156.036 40.2398 155.966 40.4512 155.86 40.6274C155.754 40.8036 155.613 40.8388 155.367 40.9445ZM154.627 39.3236C154.415 39.3236 154.274 39.3236 154.169 39.3236V40.6274H154.521C154.697 40.6274 154.838 40.6274 154.979 40.5922C155.12 40.5922 155.226 40.5569 155.296 40.4864C155.402 40.4512 155.472 40.3807 155.508 40.275C155.543 40.2046 155.578 40.0636 155.578 39.9579C155.578 39.817 155.543 39.7112 155.508 39.6408C155.472 39.5703 155.402 39.4998 155.296 39.4293C155.226 39.3941 155.12 39.3589 155.014 39.3236C154.873 39.3236 154.768 39.3236 154.627 39.3236Z" fill="white"/>
<path d="M159.313 41.8962C159.278 41.8258 159.243 41.7201 159.172 41.5791C159.102 41.4734 159.066 41.3325 158.996 41.1915C158.925 41.0506 158.855 40.9096 158.785 40.7687C158.714 40.6277 158.644 40.4868 158.573 40.3458C158.503 40.2049 158.467 40.0992 158.397 39.9935C158.326 39.8878 158.291 39.8173 158.256 39.7468C158.221 40.1344 158.185 40.5572 158.15 41.0153C158.115 41.4734 158.115 41.9315 158.08 42.3895H157.622C157.622 42.1077 157.657 41.7905 157.657 41.5086C157.657 41.1915 157.692 40.9096 157.727 40.6277C157.763 40.3458 157.763 40.0639 157.798 39.782C157.833 39.5001 157.833 39.2535 157.868 39.0068H158.291C158.397 39.1478 158.467 39.324 158.573 39.5354C158.679 39.7468 158.785 39.923 158.89 40.1696C158.996 40.3811 159.102 40.5925 159.172 40.8039C159.278 41.0153 159.348 41.2267 159.419 41.4029C159.489 41.2267 159.595 41.0153 159.665 40.8039C159.736 40.5925 159.877 40.3811 159.947 40.1696C160.053 39.9582 160.159 39.7468 160.264 39.5354C160.37 39.324 160.476 39.183 160.546 39.0068H160.969C161.075 40.0992 161.181 41.262 161.216 42.4248H160.758C160.758 41.9667 160.723 41.5086 160.687 41.0506C160.652 40.5925 160.652 40.1696 160.582 39.782C160.546 39.8525 160.511 39.923 160.441 40.0287C160.37 40.1344 160.335 40.2401 160.264 40.3811C160.194 40.522 160.124 40.663 160.053 40.8039C159.983 40.9448 159.912 41.0858 159.842 41.2267C159.771 41.3677 159.736 41.5086 159.665 41.6143C159.595 41.7201 159.56 41.8258 159.524 41.9315H159.313V41.8962Z" fill="white"/>
</svg>
