<svg width="118" height="100" viewBox="0 0 118 100" fill="none" xmlns="http://www.w3.org/2000/svg">
<g opacity="0.2">
<path fill-rule="evenodd" clip-rule="evenodd" d="M117.603 15.6182C99.9885 24.2951 91.1815 34.4902 91.1815 46.2039C98.6892 47.0716 104.897 50.1446 109.806 55.423C114.715 60.7014 117.17 66.8113 117.17 73.7527C117.17 81.128 114.787 87.3463 110.023 92.4078C105.258 97.4693 99.2667 100 92.0478 100C83.9626 100 76.9603 96.7101 71.0407 90.1302C65.1212 83.5502 62.1615 75.5604 62.1615 66.1605C62.1615 37.9608 77.8986 15.9075 109.373 9.56171e-06L117.603 15.6182ZM55.4413 15.6182C37.6827 24.2951 28.8035 34.4902 28.8035 46.2039C36.4556 47.0716 42.736 50.1446 47.6449 55.423C52.5538 60.7014 55.0082 66.8112 55.0082 73.7527C55.0082 81.128 52.5899 87.3463 47.7532 92.4078C42.9165 97.4693 36.8887 100 29.6698 100C21.5845 100 14.6183 96.7101 8.77098 90.1301C2.92363 83.5502 -6.6057e-06 75.5604 -5.78394e-06 66.1605C-3.31864e-06 37.9608 15.6649 15.9075 46.9952 4.10845e-06L55.4413 15.6182Z" fill="#20CDC1"/>
</g>
</svg>
