<svg width="118" height="100" viewBox="0 0 118 100" fill="none" xmlns="http://www.w3.org/2000/svg">
<g opacity="0.2">
<path fill-rule="evenodd" clip-rule="evenodd" d="M7.62939e-06 84.3818C17.6143 75.7049 26.4213 65.5098 26.4213 53.7961C18.9135 52.9284 12.7053 49.8554 7.79643 44.577C2.88754 39.2986 0.433144 33.1888 0.433144 26.2473C0.433144 18.872 2.81536 12.6537 7.57987 7.59219C12.3444 2.53071 18.336 0 25.555 0C33.6402 0 40.6425 3.28992 46.562 9.86985C52.4816 16.4498 55.4413 24.4396 55.4413 33.8395C55.4413 62.0392 39.7042 84.0925 8.22958 100L7.62939e-06 84.3818ZM62.1615 84.3818C79.9201 75.7049 88.7993 65.5098 88.7993 53.7961C81.1472 52.9284 74.8668 49.8554 69.9579 44.577C65.049 39.2986 62.5946 33.1888 62.5946 26.2473C62.5946 18.872 65.0129 12.6537 69.8496 7.59219C74.6863 2.53071 80.7141 0 87.933 0C96.0183 0 102.984 3.28992 108.832 9.86985C114.679 16.4498 117.603 24.4396 117.603 33.8395C117.603 62.0392 101.938 84.0925 70.6076 100L62.1615 84.3818Z" fill="#20CDC1"/>
</g>
</svg>
