<svg width="180" height="191" viewBox="0 0 180 191" fill="none" xmlns="http://www.w3.org/2000/svg">
<ellipse cx="90" cy="89.4944" rx="90" ry="89.4944" fill="#F4F4F4"/>
<path d="M150.052 78.058C151.113 78.058 151.974 77.1973 151.974 76.1357C151.974 75.0741 151.113 74.2134 150.052 74.2134C148.99 74.2134 148.129 75.0741 148.129 76.1357C148.129 77.1973 148.99 78.058 150.052 78.058Z" fill="#84D8CF"/>
<path d="M150.052 47.8445C151.113 47.8445 151.974 46.9839 151.974 45.9223C151.974 44.8606 151.113 44 150.052 44C148.99 44 148.129 44.8606 148.129 45.9223C148.129 46.9839 148.99 47.8445 150.052 47.8445Z" fill="#84D8CF"/>
<path d="M134.922 62.9513C135.984 62.9513 136.845 62.0906 136.845 61.029C136.845 59.9674 135.984 59.1068 134.922 59.1068C133.861 59.1068 133 59.9674 133 61.029C133 62.0906 133.861 62.9513 134.922 62.9513Z" fill="#84D8CF"/>
<path d="M165.158 62.9513C166.22 62.9513 167.081 62.0906 167.081 61.029C167.081 59.9674 166.22 59.1068 165.158 59.1068C164.097 59.1068 163.236 59.9674 163.236 61.029C163.236 62.0906 164.097 62.9513 165.158 62.9513Z" fill="#84D8CF"/>
<path d="M139.355 52.2544C140.416 52.2544 141.277 51.3938 141.277 50.3322C141.277 49.2705 140.416 48.4099 139.355 48.4099C138.293 48.4099 137.432 49.2705 137.432 50.3322C137.432 51.3938 138.293 52.2544 139.355 52.2544Z" fill="#84D8CF"/>
<path d="M160.726 73.6481C161.787 73.6481 162.648 72.7874 162.648 71.7258C162.648 70.6642 161.787 69.8035 160.726 69.8035C159.664 69.8035 158.804 70.6642 158.804 71.7258C158.804 72.7874 159.664 73.6481 160.726 73.6481Z" fill="#84D8CF"/>
<path d="M160.726 52.2544C161.787 52.2544 162.648 51.3938 162.648 50.3322C162.648 49.2705 161.787 48.4099 160.726 48.4099C159.664 48.4099 158.804 49.2705 158.804 50.3322C158.804 51.3938 159.664 52.2544 160.726 52.2544Z" fill="#84D8CF"/>
<path d="M139.355 73.6481C140.416 73.6481 141.277 72.7874 141.277 71.7258C141.277 70.6642 140.416 69.8035 139.355 69.8035C138.293 69.8035 137.432 70.6642 137.432 71.7258C137.432 72.7874 138.293 73.6481 139.355 73.6481Z" fill="#84D8CF"/>
<path d="M102.114 16.8445C103.175 16.8445 104.036 15.9839 104.036 14.9223C104.036 13.8606 103.175 13 102.114 13C101.052 13 100.192 13.8606 100.192 14.9223C100.192 15.9839 101.052 16.8445 102.114 16.8445Z" fill="#20CDC1"/>
<path d="M109.373 22.3173C110.435 22.3173 111.295 21.4567 111.295 20.395C111.295 19.3334 110.435 18.4728 109.373 18.4728C108.311 18.4728 107.451 19.3334 107.451 20.395C107.451 21.4567 108.311 22.3173 109.373 22.3173Z" fill="#20CDC1"/>
<path d="M106.433 30.6622C107.495 30.6622 108.355 29.8016 108.355 28.7399C108.355 27.6783 107.495 26.8177 106.433 26.8177C105.372 26.8177 104.511 27.6783 104.511 28.7399C104.511 29.8016 105.372 30.6622 106.433 30.6622Z" fill="#20CDC1"/>
<path d="M97.5682 30.5039C98.6298 30.5039 99.4905 29.6433 99.4905 28.5816C99.4905 27.52 98.6298 26.6594 97.5682 26.6594C96.5066 26.6594 95.6459 27.52 95.6459 28.5816C95.6459 29.6433 96.5066 30.5039 97.5682 30.5039Z" fill="#20CDC1"/>
<path d="M94.9223 22.0459C95.9839 22.0459 96.8445 21.1853 96.8445 20.1237C96.8445 19.062 95.9839 18.2014 94.9223 18.2014C93.8606 18.2014 93 19.062 93 20.1237C93 21.1853 93.8606 22.0459 94.9223 22.0459Z" fill="#20CDC1"/>
<path d="M171.515 33.449C172.322 31.5011 171.397 29.2678 169.449 28.461C167.501 27.6541 165.268 28.5791 164.461 30.527C163.654 32.475 164.579 34.7082 166.527 35.5151C168.475 36.3219 170.708 35.3969 171.515 33.449Z" fill="#20CDC1"/>
<path d="M57.5465 149.517C59.2171 145.632 57.4216 141.128 53.536 139.457C49.6505 137.786 45.1463 139.582 43.4757 143.467C41.8051 147.353 43.6007 151.857 47.4862 153.528C51.3717 155.198 55.8759 153.403 57.5465 149.517Z" fill="#CFDADA"/>
<path d="M31.8176 130.635C33.9259 130.635 35.6351 128.926 35.6351 126.818C35.6351 124.709 33.9259 123 31.8176 123C29.7092 123 28 124.709 28 126.818C28 128.926 29.7092 130.635 31.8176 130.635Z" fill="#84D8CF"/>
<path d="M112.942 121.286C125.817 108.411 125.817 87.5346 112.942 74.6587C100.066 61.7828 79.1898 61.7828 66.3139 74.6587C53.438 87.5346 53.438 108.411 66.3139 121.286C79.1898 134.162 100.066 134.162 112.942 121.286Z" fill="#F3A3A3"/>
<path d="M81.3748 48.9962L72.2733 51.4349L75.3204 62.8075L84.422 60.3688L81.3748 48.9962Z" fill="#CFDADA"/>
<path d="M108.841 55.2529L104.934 62.0192L113.094 66.7306L117.001 59.9644L108.841 55.2529Z" fill="#CFDADA"/>
<path d="M100.585 138.91C78.0135 144.95 54.7185 131.512 48.6778 108.941C42.637 86.3692 56.075 63.0742 78.6466 57.0334C101.218 50.9926 124.513 64.4307 130.554 87.0022C136.595 109.574 123.157 132.869 100.585 138.91ZM81.0882 66.1308C63.5265 70.8332 53.0727 88.9374 57.7751 106.499C62.4775 124.061 80.5818 134.515 98.1435 129.812C115.705 125.11 126.159 107.006 121.457 89.4438C116.754 71.8822 98.6499 61.4284 81.0882 66.1308Z" fill="#F37B7B"/>
<path d="M96.9316 125.273C81.8839 129.306 66.366 120.335 62.3328 105.287C58.2996 90.2397 67.2703 74.7217 82.318 70.6885C84.832 70.0193 87.4183 71.5024 88.0875 74.0164C88.7567 76.5303 87.2736 79.1167 84.7596 79.7858C74.7218 82.4807 68.7534 92.826 71.4482 102.864C74.143 112.902 84.4883 118.87 94.5262 116.175C97.0401 115.506 99.6265 116.989 100.296 119.503C100.929 122.017 99.4456 124.585 96.9316 125.273Z" fill="#20CDC1"/>
<path d="M107.44 114.059C105.197 112.757 104.456 109.845 105.812 107.62C107.114 105.378 110.026 104.636 112.251 105.993C114.493 107.295 115.235 110.225 113.878 112.431C113.245 113.535 112.233 114.294 111.057 114.602C109.863 114.927 108.543 114.746 107.44 114.059ZM107.82 93.0972C107.15 90.6013 108.652 87.9969 111.147 87.3277C113.643 86.6586 116.248 88.1597 116.917 90.6556C117.586 93.1515 116.085 95.7559 113.589 96.4251C111.075 97.0943 108.489 95.5931 107.82 93.0972Z" fill="#84D8CF"/>
<path d="M90.8366 102.52C88.3226 103.189 85.7363 101.706 85.0671 99.1923C84.3979 96.6783 85.881 94.092 88.395 93.4228C90.9089 92.7536 93.4953 94.2367 94.1644 96.7507C94.8336 99.2646 93.3506 101.851 90.8366 102.52ZM89.6067 97.9805L87.3279 98.5955L89.6067 97.9805C89.6248 97.9805 89.6248 97.9805 89.6067 97.9805Z" fill="white"/>
<path d="M89.6249 97.9805C88.3588 98.3241 87.0747 97.5645 86.7492 96.3165L80.6541 73.5641C80.3105 72.2981 81.0701 71.014 82.318 70.6884C83.5841 70.3448 84.8682 71.1044 85.1937 72.3523L91.2888 95.1048C91.6143 96.3527 90.8728 97.6368 89.6249 97.9805Z" fill="white"/>
<path d="M89.2411 42L61.9538 49.3112L64.3924 58.4128L91.6797 51.1015L89.2411 42Z" fill="#CFDADA"/>
<path d="M90.7071 190.293C90.3166 190.683 89.6834 190.683 89.2929 190.293L76.7071 177.707C76.0771 177.077 76.5233 176 77.4142 176H102.586C103.477 176 103.923 177.077 103.293 177.707L90.7071 190.293Z" fill="#F4F4F4"/>
</svg>
