<svg width="180" height="196" viewBox="0 0 180 196" fill="none" xmlns="http://www.w3.org/2000/svg">
<ellipse cx="90" cy="94.4944" rx="90" ry="89.4944" fill="#F4F4F4"/>
<path d="M64.0136 75.7692H45.2627C35.6144 83.6275 22.6481 101.462 22.6481 112.769C22.6481 123.247 25.8132 129.861 32.6893 135.558C34.7194 137.239 37.2952 138.178 39.9365 138.178H69.3616C72.0029 138.178 74.5787 137.239 76.6088 135.558C83.4848 129.861 86.65 123.247 86.65 112.769C86.65 101.462 73.6837 83.6275 64.0136 75.7692Z" fill="#84D8CF"/>
<path d="M63.4024 75.7691L70.3003 64.9638C70.8678 64.4181 70.7369 63.7196 70.0383 63.3703L67.6808 62.2352C66.9823 61.9078 65.8035 61.8205 65.0614 62.0606L61.8744 63.0866C61.1322 63.3267 60.0189 63.1521 59.3859 62.6936L55.7841 60.1179C55.1511 59.6594 54.1252 59.6594 53.4921 60.1179L49.9122 62.6936C49.2792 63.1521 48.1659 63.3267 47.4237 63.0866L44.2367 62.0606C43.4945 61.8205 42.3158 61.9078 41.6173 62.2352L39.2598 63.3703C38.5612 63.6978 38.4521 64.4181 38.9978 64.9638L45.8957 75.7691H63.4024Z" fill="#84D8CF"/>
<path d="M67.0259 78.4541C67.4843 80.8334 67.7463 83.2783 67.7463 85.7886C67.7463 107.486 50.1523 125.08 28.4545 125.08C27.1884 125.08 25.9224 125.015 24.7 124.884C26.3371 129.01 28.9347 132.437 32.6893 135.536C34.7194 137.217 37.2951 138.156 39.9364 138.156H69.3616C72.0029 138.156 74.5787 137.217 76.6088 135.536C83.4848 129.839 86.65 123.225 86.65 112.747C86.65 102.619 76.1722 87.1856 67.0259 78.4541Z" fill="#20CDC1"/>
<path d="M49.934 114.821C49.934 113.664 48.9954 112.725 47.8385 112.725C46.6816 112.725 45.7429 113.664 45.7429 114.821C45.7429 116.829 46.4196 118.663 47.5329 120.147C48.7553 119.47 49.934 118.706 51.091 117.899C50.3706 117.069 49.934 116 49.934 114.821Z" fill="white"/>
<path d="M59.3641 114.821C59.3641 117.418 57.2467 119.536 54.6491 119.536C53.2302 119.536 51.9423 118.881 51.091 117.877C49.9559 118.685 48.7771 119.449 47.5329 120.125C48.7553 121.741 50.5234 122.941 52.5535 123.443V125.037C52.5535 126.194 53.4922 127.132 54.6491 127.132C55.806 127.132 56.7446 126.194 56.7446 125.037V123.443C60.652 122.505 63.5552 118.99 63.5552 114.799C63.5552 112.07 62.1363 110.171 60.3027 108.731C59.4951 109.866 58.6001 110.935 57.6833 111.983C58.7529 112.834 59.3641 113.708 59.3641 114.821Z" fill="#84D8CF"/>
<path d="M63.5115 77.8647H45.7648C44.6078 77.8647 43.6692 76.9261 43.6692 75.7691C43.6692 74.6122 44.6078 73.6736 45.7648 73.6736H63.5115C64.6685 73.6736 65.6071 74.6122 65.6071 75.7691C65.6071 76.9261 64.6685 77.8647 63.5115 77.8647Z" fill="white"/>
<path d="M56.1989 106.155C52.9682 104.409 51.0255 103.186 51.0255 101.178C51.0255 100.327 51.2874 97.5543 54.6491 97.5543C57.5086 97.5543 58.2726 99.8463 58.2726 101.178C58.2726 102.335 59.2113 103.273 60.3682 103.273C61.5251 103.273 62.4637 102.335 62.4637 101.178C62.4637 97.9472 60.4555 94.5637 56.7446 93.6251V92.0316C56.7446 90.8747 55.806 89.936 54.6491 89.936C53.4921 89.936 52.5535 90.8747 52.5535 92.0316V93.6251C49.1045 94.4546 46.8344 97.3142 46.8344 101.178C46.8344 105.827 50.9163 108.054 54.2125 109.844C55.6532 110.63 56.8319 111.306 57.7051 112.005C58.6437 110.957 59.5169 109.888 60.3245 108.752C59.0148 107.726 57.5523 106.897 56.1989 106.155Z" fill="white"/>
<path d="M123.781 63.3267H98.7868C85.9078 73.8263 68.6194 97.5978 68.6194 112.681C68.6194 126.652 72.8324 135.449 82.0005 143.067C84.7291 145.316 88.1344 146.582 91.6706 146.582H130.897C134.433 146.582 137.838 145.337 140.567 143.067C149.735 135.471 153.948 126.674 153.948 112.681C153.948 97.6196 136.66 73.8263 123.781 63.3267Z" fill="#F3A3A3"/>
<path d="M122.951 63.3267L132.163 48.9197C132.905 48.1994 132.752 47.2607 131.836 46.8023L128.692 45.2961C127.754 44.8377 126.182 44.7286 125.2 45.056L120.943 46.4094C119.961 46.715 118.455 46.4967 117.625 45.8855L112.823 42.4584C111.993 41.8472 110.618 41.8472 109.767 42.4584L104.986 45.9073C104.157 46.5186 102.651 46.7587 101.668 46.4312L97.3898 45.056C96.4075 44.7504 94.8358 44.8596 93.8972 45.2961L90.7538 46.8023C89.8152 47.2607 89.6624 48.1994 90.4264 48.9197L99.6381 63.3267H122.951Z" fill="#F3A3A3"/>
<path d="M127.797 66.9283C128.408 70.0935 128.736 73.3678 128.736 76.7295C128.736 105.653 105.292 129.119 76.3468 129.119C74.6442 129.119 72.9852 129.031 71.3262 128.857C73.5091 134.379 76.9799 138.92 81.9787 143.067C84.7073 145.315 88.1126 146.582 91.6488 146.582H130.875C134.411 146.582 137.817 145.337 140.545 143.067C149.713 135.471 153.926 126.674 153.926 112.681C153.948 99.1258 139.978 78.5849 127.797 66.9283Z" fill="#F37B7B"/>
<path d="M104.986 115.41C104.986 113.86 103.742 112.616 102.192 112.616C100.642 112.616 99.398 113.86 99.398 115.41C99.398 118.073 100.293 120.518 101.799 122.505C103.436 121.588 105.008 120.584 106.536 119.492C105.597 118.401 104.986 116.982 104.986 115.41Z" fill="white"/>
<path d="M117.581 115.41C117.581 118.881 114.765 121.719 111.295 121.719C109.396 121.719 107.693 120.846 106.536 119.514C105.008 120.584 103.436 121.61 101.799 122.526C103.436 124.687 105.772 126.303 108.501 126.958V129.075C108.501 130.625 109.745 131.869 111.295 131.869C112.845 131.869 114.089 130.625 114.089 129.075V126.958C119.284 125.692 123.17 121.02 123.17 115.432C123.17 111.787 121.27 109.276 118.826 107.334C117.734 108.84 116.577 110.281 115.333 111.678C116.774 112.769 117.581 113.926 117.581 115.41Z" fill="#F3A3A3"/>
<path d="M122.951 66.1209H99.6163C98.0664 66.1209 96.8222 64.8766 96.8222 63.3268C96.8222 61.777 98.0664 60.5327 99.6163 60.5327H122.951C124.501 60.5327 125.745 61.777 125.745 63.3268C125.745 64.8766 124.501 66.1209 122.951 66.1209Z" fill="white"/>
<path d="M113.347 103.863C109.046 101.527 106.449 99.9117 106.449 97.2267C106.449 96.0916 106.798 92.3807 111.295 92.3807C115.115 92.3807 116.141 95.4149 116.141 97.2267C116.141 98.7766 117.385 100.021 118.935 100.021C120.485 100.021 121.729 98.7766 121.729 97.2267C121.729 92.9265 119.066 88.4297 114.089 87.1637V85.0463C114.089 83.4964 112.845 82.2522 111.295 82.2522C109.745 82.2522 108.501 83.4964 108.501 85.0463V87.1637C103.895 88.2769 100.861 92.0751 100.861 97.2267C100.861 103.426 106.318 106.395 110.683 108.774C112.604 109.822 114.176 110.717 115.333 111.634C116.577 110.259 117.734 108.818 118.826 107.29C117.123 105.936 115.158 104.845 113.347 103.863Z" fill="white"/>
<path d="M98.6168 16.7645C84.2534 16.7645 81.8523 14.3633 81.8523 0C81.8523 14.3633 79.4511 16.7645 65.0878 16.7645C79.4511 16.7645 81.8523 19.1657 81.8523 33.529C81.8523 19.1657 84.2534 16.7645 98.6168 16.7645Z" fill="#84D8CF"/>
<path d="M65.6335 28.0065C58.5173 28.0065 57.3168 26.8277 57.3168 19.6897C57.3168 26.8059 56.138 28.0065 49 28.0065C56.1162 28.0065 57.3168 29.1852 57.3168 36.3232C57.3386 29.1852 58.5173 28.0065 65.6335 28.0065Z" fill="#84D8CF"/>
<path d="M87.3313 55.0085C80.2152 55.0085 79.0146 53.8298 79.0146 46.6918C79.0146 53.808 77.8358 55.0085 70.6978 55.0085C77.814 55.0085 79.0146 56.1873 79.0146 63.3253C79.0364 56.1873 80.2152 55.0085 87.3313 55.0085Z" fill="#F3A3A3"/>
<path d="M105.052 83.6711C92.1072 83.6711 89.9461 81.51 89.9461 68.5656C89.9461 81.51 87.7851 83.6711 74.8406 83.6711C87.7851 83.6711 89.9461 85.8321 89.9461 98.7766C89.9461 85.8321 92.1072 83.6711 105.052 83.6711Z" fill="white"/>
<path d="M90.7071 195.293C90.3166 195.683 89.6834 195.683 89.2929 195.293L76.7071 182.707C76.0771 182.077 76.5233 181 77.4142 181H102.586C103.477 181 103.923 182.077 103.293 182.707L90.7071 195.293Z" fill="#F4F4F4"/>
</svg>
