<svg width="180" height="191" viewBox="0 0 180 191" fill="none" xmlns="http://www.w3.org/2000/svg">
<ellipse cx="90" cy="89.4944" rx="90" ry="89.4944" fill="#F4F4F4"/>
<path d="M7.25533 112.277L6.49707 112.699L7.34179 114.216L8.10004 113.793L7.25533 112.277Z" fill="#20CDC1"/>
<path d="M132.369 42.7413L131.611 43.1637L132.456 44.6802L133.214 44.2579L132.369 42.7413Z" fill="#20CDC1"/>
<path d="M160.764 130.87C162.694 130.87 164.259 129.305 164.259 127.375C164.259 125.445 162.694 123.88 160.764 123.88C158.833 123.88 157.268 125.445 157.268 127.375C157.268 129.305 158.833 130.87 160.764 130.87Z" fill="#CFDADA"/>
<path d="M83.8889 39.9907C85.8193 39.9907 87.3843 38.4258 87.3843 36.4954C87.3843 34.5649 85.8193 33 83.8889 33C81.9585 33 80.3936 34.5649 80.3936 36.4954C80.3936 38.4258 81.9585 39.9907 83.8889 39.9907Z" fill="#CFDADA"/>
<path d="M48.2548 17.5096C51.1569 17.5096 53.5096 15.1569 53.5096 12.2548C53.5096 9.35265 51.1569 7 48.2548 7C45.3527 7 43 9.35265 43 12.2548C43 15.1569 45.3527 17.5096 48.2548 17.5096Z" fill="#CFDADA"/>
<path d="M167.754 64.4583C171.615 64.4583 174.745 61.3284 174.745 57.4676C174.745 53.6067 171.615 50.4768 167.754 50.4768C163.893 50.4768 160.764 53.6067 160.764 57.4676C160.764 61.3284 163.893 64.4583 167.754 64.4583Z" fill="#CFDADA"/>
<path d="M62.3771 140.7L63.5266 142.013L97.3778 112.361C97.1197 111.798 96.8851 111.235 96.6505 110.672L62.3771 140.7Z" fill="#F37B7B"/>
<path d="M109.15 55.6378L107.652 56.4686L108.506 58.0072L110.003 57.1765L109.15 55.6378Z" fill="#20CDC1"/>
<path d="M43.2204 92.2899L41.7238 93.1223L42.5677 94.6394L44.0642 93.8069L43.2204 92.2899Z" fill="#20CDC1"/>
<path d="M31.2231 98.9646L29.7266 99.7969L30.5702 101.314L32.0668 100.482L31.2231 98.9646Z" fill="#20CDC1"/>
<path d="M85.1644 68.955L83.6683 69.7885L84.5132 71.305L86.0093 70.4716L85.1644 68.955Z" fill="#20CDC1"/>
<path d="M25.2303 102.311L23.7335 103.143L24.577 104.66L26.0738 103.828L25.2303 102.311Z" fill="#20CDC1"/>
<path d="M49.1883 88.9494L47.6923 89.7827L48.537 91.2992L50.0331 90.466L49.1883 88.9494Z" fill="#20CDC1"/>
<path d="M37.2188 95.6482L35.722 96.4803L36.5655 97.9976L38.0623 97.1655L37.2188 95.6482Z" fill="#20CDC1"/>
<path d="M61.176 82.2862L59.6799 83.1195L60.5246 84.636L62.0207 83.8027L61.176 82.2862Z" fill="#20CDC1"/>
<path d="M121.124 48.9809L119.627 49.8115L120.48 51.3501L121.977 50.5195L121.124 48.9809Z" fill="#20CDC1"/>
<path d="M79.1852 72.2941L77.6891 73.1276L78.534 74.6441L80.0301 73.8106L79.1852 72.2941Z" fill="#20CDC1"/>
<path d="M91.1738 65.6308L89.6777 66.4643L90.5226 67.9808L92.0187 67.1473L91.1738 65.6308Z" fill="#20CDC1"/>
<path d="M115.12 52.3181L113.622 53.1486L114.476 54.6872L115.973 53.8567L115.12 52.3181Z" fill="#20CDC1"/>
<path d="M67.1841 78.9616L65.688 79.7949L66.5328 81.3114L68.0288 80.4781L67.1841 78.9616Z" fill="#20CDC1"/>
<path d="M55.1959 85.6244L53.6999 86.4577L54.5446 87.9742L56.0406 87.1409L55.1959 85.6244Z" fill="#20CDC1"/>
<path d="M19.2453 105.617L17.7488 106.449L18.5926 107.966L20.0892 107.134L19.2453 105.617Z" fill="#20CDC1"/>
<path d="M73.1636 75.6231L71.6675 76.4564L72.5123 77.9729L74.0083 77.1396L73.1636 75.6231Z" fill="#20CDC1"/>
<path d="M92.8268 96.4092L18.814 110.32C18.9548 110.883 19.0721 111.446 19.1425 112.033L93.0614 98.1451C92.9675 97.5821 92.8737 96.9957 92.8268 96.4092Z" fill="#20CDC1"/>
<path d="M132.801 48.7409C135.703 48.7409 138.055 46.3883 138.055 43.4861C138.055 40.584 135.703 38.2313 132.801 38.2313C129.899 38.2313 127.546 40.584 127.546 43.4861C127.546 46.3883 129.899 48.7409 132.801 48.7409Z" fill="#20CDC1"/>
<path d="M145.824 63.5288L144.335 64.4223L145.241 65.9308L146.729 65.0373L145.824 63.5288Z" fill="#20CDC1"/>
<path d="M135.04 45.5452L133.552 46.4385L134.457 47.947L135.946 47.0537L135.04 45.5452Z" fill="#20CDC1"/>
<path d="M163.819 93.5096L162.33 94.4022L163.223 95.8912L164.712 94.9985L163.819 93.5096Z" fill="#20CDC1"/>
<path d="M125.177 67.0154C125.74 67.1562 126.303 67.2969 126.866 67.4846L130.783 53.7846C130.197 53.6673 129.634 53.5031 129.094 53.292L125.177 67.0154Z" fill="#20CDC1"/>
<path d="M103.136 58.9651L101.64 59.7986L102.485 61.3151L103.981 60.4816L103.136 58.9651Z" fill="#20CDC1"/>
<path d="M97.1575 62.3042L95.6615 63.1377L96.5064 64.6542L98.0024 63.8207L97.1575 62.3042Z" fill="#20CDC1"/>
<path d="M138.032 53.9253L139.533 53.0338L138.923 52.0016C138.454 52.3301 137.962 52.635 137.422 52.8931L138.032 53.9253Z" fill="#20CDC1"/>
<path d="M142.206 57.5401L140.717 58.4327L141.61 59.9215L143.098 59.0289L142.206 57.5401Z" fill="#20CDC1"/>
<path d="M149.411 69.5124L147.922 70.4058L148.828 71.9143L150.316 71.021L149.411 69.5124Z" fill="#20CDC1"/>
<path d="M160.221 87.4947L158.732 88.3882L159.638 89.8967L161.126 89.0032L160.221 87.4947Z" fill="#20CDC1"/>
<path d="M167.389 99.4955L165.899 100.387L166.803 101.897L168.293 101.005L167.389 99.4955Z" fill="#20CDC1"/>
<path d="M153.013 75.5179L151.523 76.4098L152.427 77.9192L153.917 77.0273L153.013 75.5179Z" fill="#20CDC1"/>
<path d="M156.597 81.5106L155.109 82.4034L156.001 83.8921L157.49 82.9993L156.597 81.5106Z" fill="#20CDC1"/>
<path d="M144.084 100.984C143.967 101.547 143.826 102.133 143.686 102.696L164.681 110.578C164.846 110.015 165.057 109.476 165.291 108.936L144.084 100.984Z" fill="#20CDC1"/>
<path d="M174.745 118.695C177.647 118.695 180 116.343 180 113.44C180 110.538 177.647 108.186 174.745 108.186C171.843 108.186 169.49 110.538 169.49 113.44C169.49 116.343 171.843 118.695 174.745 118.695Z" fill="#20CDC1"/>
<path d="M58.7645 59.8604L96.5098 78.7448C96.8148 78.2521 97.1432 77.7595 97.4716 77.2669L59.5386 58.2886C59.304 58.8282 59.046 59.3443 58.7645 59.8604Z" fill="#F37B7B"/>
<path d="M12.1047 102.344C12.6443 102.602 13.1604 102.861 13.6296 103.189L33.4054 67.6722C32.8893 67.4142 32.3732 67.1327 31.8806 66.8277L12.1047 102.344Z" fill="#CFDADA"/>
<path d="M122.455 45.1517C122.362 44.6122 122.315 44.0492 122.315 43.4861C122.315 43.4627 122.315 43.4392 122.315 43.4158L61.04 48.131C61.1104 48.694 61.1573 49.2805 61.1573 49.867L122.455 45.1517Z" fill="#20CDC1"/>
<path d="M6.99076 120.431C10.8516 120.431 13.9815 117.301 13.9815 113.44C13.9815 109.58 10.8516 106.45 6.99076 106.45C3.12987 106.45 0 109.58 0 113.44C0 117.301 3.12987 120.431 6.99076 120.431Z" fill="#20CDC1"/>
<path d="M62.9402 146.611C65.8424 146.611 68.195 144.259 68.195 141.356C68.195 138.454 65.8424 136.102 62.9402 136.102C60.0381 136.102 57.6854 138.454 57.6854 141.356C57.6854 144.259 60.0381 146.611 62.9402 146.611Z" fill="#F37B7B"/>
<path d="M119 71C107.396 71 98 80.4626 98 92.1489C98 113.227 119 134.447 119 134.447C119 134.447 140 113.227 140 92.1489C140 80.4626 130.604 71 119 71Z" fill="#F37B7B"/>
<path d="M118.553 101.383C124.476 101.383 129.277 96.5819 129.277 90.6596C129.277 84.7372 124.476 79.9362 118.553 79.9362C112.631 79.9362 107.83 84.7372 107.83 90.6596C107.83 96.5819 112.631 101.383 118.553 101.383Z" fill="#F3A3A3"/>
<path d="M41.9679 64.4583C49.6897 64.4583 55.9494 58.1986 55.9494 50.4768C55.9494 42.755 49.6897 36.4953 41.9679 36.4953C34.2462 36.4953 27.9865 42.755 27.9865 50.4768C27.9865 58.1986 34.2462 64.4583 41.9679 64.4583Z" fill="#F37B7B"/>
<path d="M41.968 50.477C43.419 50.477 44.5953 48.9121 44.5953 46.9816C44.5953 45.0512 43.419 43.4863 41.968 43.4863C40.5169 43.4863 39.3406 45.0512 39.3406 46.9816C39.3406 48.9121 40.5169 50.477 41.968 50.477Z" fill="white"/>
<path d="M48.9587 64.4584L48.3253 56.975C48.1845 55.1687 46.9177 53.6438 45.1818 53.1277C43.0705 52.5178 40.8653 52.5178 38.754 53.1277C37.0181 53.6204 35.7513 55.1452 35.6106 56.975L34.9772 64.4584H48.9587Z" fill="white"/>
<path d="M90.7071 190.293C90.3166 190.683 89.6834 190.683 89.2929 190.293L76.7071 177.707C76.0771 177.077 76.5233 176 77.4142 176H102.586C103.477 176 103.923 177.077 103.293 177.707L90.7071 190.293Z" fill="#F4F4F4"/>
</svg>
