<svg width="180" height="191" viewBox="0 0 180 191" fill="none" xmlns="http://www.w3.org/2000/svg">
<ellipse cx="90" cy="89.4944" rx="90" ry="89.4944" fill="#F4F4F4"/>
<path d="M123.692 61.3848C131.807 61.3848 138.385 54.8067 138.385 46.6924C138.385 38.578 131.807 32 123.692 32C115.578 32 109 38.578 109 46.6924C109 54.8067 115.578 61.3848 123.692 61.3848Z" fill="#CFDADA"/>
<path d="M36.3183 108.652C41.0664 108.652 44.9155 104.803 44.9155 100.055C44.9155 95.3071 41.0664 91.458 36.3183 91.458C31.5703 91.458 27.7212 95.3071 27.7212 100.055C27.7212 104.803 31.5703 108.652 36.3183 108.652Z" fill="#CFDADA"/>
<path d="M173.448 89.3087C177.009 89.3087 179.896 86.4219 179.896 82.8609C179.896 79.2998 177.009 76.413 173.448 76.413C169.887 76.413 167 79.2998 167 82.8609C167 86.4219 169.887 89.3087 173.448 89.3087Z" fill="#CFDADA"/>
<path d="M4.29857 87.1594C6.6726 87.1594 8.59714 85.2349 8.59714 82.8608C8.59714 80.4868 6.6726 78.5623 4.29857 78.5623C1.92454 78.5623 0 80.4868 0 82.8608C0 85.2349 1.92454 87.1594 4.29857 87.1594Z" fill="#CFDADA"/>
<path d="M20 116C21.6569 116 23 114.657 23 113C23 111.343 21.6569 110 20 110C18.3431 110 17 111.343 17 113C17 114.657 18.3431 116 20 116Z" fill="#CFDADA"/>
<path d="M102.946 134.444H81.4533L70.7068 145.19H113.693L102.946 134.444Z" fill="#CFDADA"/>
<path d="M116.916 144.115H67.4828C66.8893 144.115 66.4082 144.597 66.4082 145.19C66.4082 145.784 66.8893 146.265 67.4828 146.265H116.916C117.51 146.265 117.991 145.784 117.991 145.19C117.991 144.597 117.51 144.115 116.916 144.115Z" fill="#20CDC1"/>
<path d="M107.245 138.742L102.946 134.444H81.4532L77.1547 138.742H107.245Z" fill="#84D8CF"/>
<path d="M135.185 57.0862H49.214C44.462 57.0862 40.6168 60.9314 40.6168 65.6834V125.863C40.6168 130.615 44.462 134.46 49.214 134.46H135.185C139.937 134.46 143.782 130.615 143.782 125.863V65.6834C143.782 60.9314 139.92 57.0862 135.185 57.0862Z" fill="#84D8CF"/>
<path d="M135.185 57.0862H49.214C44.462 57.0862 40.6168 60.9314 40.6168 65.6834V125.863C40.6168 130.615 44.462 134.46 49.214 134.46H135.185C139.937 134.46 143.782 130.615 143.782 125.863V65.6834C143.782 60.9314 139.92 57.0862 135.185 57.0862ZM47.0647 65.6666C47.0647 64.4744 48.0218 63.5173 49.214 63.5173H135.185C136.378 63.5173 137.335 64.4744 137.335 65.6666V117.249C137.335 118.442 136.378 119.399 135.185 119.399H49.214C48.0218 119.399 47.0647 118.442 47.0647 117.249V65.6666Z" fill="#20CDC1"/>
<path d="M99.7221 124.772H84.8115C84.218 124.772 83.7368 125.253 83.7368 125.847C83.7368 126.44 84.218 126.921 84.8115 126.921H99.7221C100.316 126.921 100.797 126.44 100.797 125.847C100.797 125.253 100.316 124.772 99.7221 124.772Z" fill="#84D8CF"/>
<path d="M60.3802 55.7094L76.2144 39.8752H124.002V119.399H60.3802V55.7094Z" fill="#F3A3A3"/>
<path d="M76.2144 55.7094H60.3802L76.2144 39.8752V55.7094Z" fill="#F37B7B"/>
<rect x="77" y="63" width="30" height="2" rx="1" fill="#F37B7B"/>
<rect x="77" y="87" width="30" height="2" rx="1" fill="#F37B7B"/>
<rect x="77" y="75" width="30" height="2" rx="1" fill="#F37B7B"/>
<rect x="77" y="99" width="30" height="2" rx="1" fill="#F37B7B"/>
<path d="M120.56 95.7063L100.36 76.3123L100.377 104.32L107.295 100.173L111.661 110.399L117.152 108.048L112.786 97.8387L120.56 95.7063Z" fill="#F37B7B"/>
<path d="M115.791 94.111L95.5916 74.7171L95.6083 102.725L102.526 98.5775L106.892 108.803L112.366 106.469L108.017 96.2435L115.791 94.111Z" fill="white"/>
<path d="M90.7071 190.293C90.3166 190.683 89.6834 190.683 89.2929 190.293L76.7071 177.707C76.0771 177.077 76.5233 176 77.4142 176H102.586C103.477 176 103.923 177.077 103.293 177.707L90.7071 190.293Z" fill="#F4F4F4"/>
</svg>
